<?xml version="1.0" encoding="UTF-8"?>
<svg width="300" height="300" viewBox="0 0 300 300" fill="none" xmlns="http://www.w3.org/2000/svg">
  <defs>
    <linearGradient id="circleGradient" x1="0%" y1="0%" x2="100%" y2="100%">
      <stop offset="0%" style="stop-color:#00ffff;stop-opacity:0.2" />
      <stop offset="50%" style="stop-color:#00ffff;stop-opacity:0.4" />
      <stop offset="100%" style="stop-color:#00ffff;stop-opacity:0.2" />
    </linearGradient>
  </defs>
  <path d="M150,0 
           A150,150 0 0,1 300,150 
           A150,150 0 0,1 150,300 
           A150,150 0 0,1 0,150 
           A150,150 0 0,1 150,0 z" 
        fill="url(#circleGradient)" />
  <path d="M150,50 
           A100,100 0 0,1 250,150 
           A100,100 0 0,1 150,250 
           A100,100 0 0,1 50,150 
           A100,100 0 0,1 150,50 z" 
        fill="#00ffff" 
        fill-opacity="0.1" 
        stroke="#00ffff" 
        stroke-width="2" />
</svg> 