<svg width="537" height="388" viewBox="0 0 537 388" fill="none" xmlns="http://www.w3.org/2000/svg">
<rect width="480" height="24" transform="translate(35 363.99)" fill="white" fill-opacity="0.04"/>
<path d="M35 375.433L36.0435 375.558L37.087 374.688L38.1304 374.812L39.1739 375.931L40.2174 376.055L41.2609 372.576L42.3043 372.203L43.3478 372.078L44.3913 372.203L46.4783 371.954L47.5217 372.327L48.5652 370.96L49.6087 370.712L50.6522 370.836L51.6957 369.221L52.7391 367.729L53.7826 370.712L54.8261 371.457L55.8696 369.966L56.913 370.712L57.9565 373.445L59 374.936L60.0435 374.812L61.087 375.433L62.1304 373.942L63.1739 376.055L64.2174 374.812L65.2609 376.055L66.3043 375.931L67.3478 374.936L68.3913 374.812L69.4348 373.073L70.4783 370.215L71.5217 369.842L72.5652 369.718L73.6087 369.842L74.6522 368.723L75.6956 368.848L76.7391 368.102L77.7826 370.09L78.8261 368.226L79.8696 366.487L80.913 366.363L81.9565 367.854L84.0435 368.102L85.087 368.972L86.1304 370.463L87.1739 371.084L88.2174 370.712L89.2609 371.954L90.3043 371.706H91.3478L92.3913 372.203L93.4348 371.333L94.4783 371.457L95.5217 369.221L96.5652 368.599L97.6087 368.475L98.6522 367.729L99.6957 367.605L100.739 367.729L101.783 369.469L102.826 368.972L103.87 367.605L104.913 367.729L105.957 367.605L107 367.108L108.043 366.984L109.087 367.108L110.13 368.102L111.174 368.226H112.217L113.261 367.854L114.304 367.729L115.348 368.351L116.391 365.99L117.435 368.475L118.478 368.351L119.522 368.475L120.565 366.984L121.609 367.108L122.652 366.984L123.696 367.108L124.739 366.984L125.783 367.854L126.826 369.221L127.87 367.357L128.913 369.593L129.957 371.706L131 371.581L132.043 371.83L133.087 369.718L134.13 368.351L135.174 368.226L136.217 368.351L137.261 368.226L138.304 370.587L139.348 372.7L140.391 373.942L141.435 368.226L142.478 368.723L143.522 368.599L144.565 368.102L145.609 367.978L146.652 368.972H147.696L148.739 369.096L149.783 368.972L150.826 367.978L151.87 367.854L152.913 366.487L153.957 367.357L155 367.481L156.043 366.238L157.087 366.487L158.13 368.972L159.174 369.096L160.217 368.972L161.261 368.102L162.304 368.972L163.348 368.848L164.391 367.729L165.435 367.605L166.478 371.084L167.522 371.457L168.565 371.582L169.609 371.457L171.696 371.706L172.739 371.333L173.783 372.7L174.826 372.948L175.87 372.824L176.913 374.44L177.957 375.931L179 372.948L180.043 372.203L181.087 373.694L182.13 372.948L183.174 370.215L184.217 368.724L185.261 368.848L186.304 368.227L187.348 369.718L188.391 367.605L189.435 368.848L190.478 367.605L191.522 367.729L192.565 368.724L193.609 368.848L194.652 370.587L195.696 373.445L196.739 373.818L197.783 373.942L198.826 373.818L199.87 374.937L200.913 374.812L201.957 375.558L203 373.57L204.043 375.434L205.087 377.173L206.13 377.297L207.174 375.806L209.261 375.558L210.304 374.688L211.348 373.197L212.391 372.576L213.435 372.948L214.478 371.706L215.522 371.954H216.565L217.609 371.457L218.652 372.327L219.696 372.203L220.739 374.44L221.783 375.061L222.826 375.185L223.87 375.931L224.913 376.055L225.957 375.931L227 374.191L228.043 374.688L229.087 376.055L230.13 375.931L231.174 376.055L232.217 376.552L233.261 376.676L234.304 376.552L235.348 375.558L236.391 375.434H237.435L238.478 375.806L239.522 375.931L240.565 375.309L241.609 377.67L242.652 375.185L243.696 375.309L244.739 375.185L245.783 376.676L246.826 376.552L247.87 376.676L248.913 376.552L249.957 376.676L251 375.806L252.043 374.44L253.087 376.303L254.13 374.067L255.174 371.954L256.217 372.079L257.261 371.83L258.304 373.942L259.348 375.309L260.391 375.434L261.435 375.309L262.478 375.434L263.522 373.073L264.565 370.96L265.609 369.718L266.652 375.434L267.696 374.937L268.739 375.061L269.783 375.558L270.826 375.682L271.87 374.688H272.913L273.957 374.564L275 374.688L276.043 375.682L277.087 375.806L278.13 377.173L279.174 376.303L280.217 376.179L281.261 377.422L282.304 377.173L283.348 374.688L284.391 374.564L285.435 374.688H286.478L287.522 374.812L288.565 374.688L289.609 374.812L290.652 376.552L291.696 376.676L292.739 376.552L293.783 376.676L294.826 376.552L295.87 376.676L296.913 376.552L297.957 376.676L299 374.812L300.043 375.061H301.087L302.13 375.185L303.174 375.061L304.217 375.185L305.261 376.552L306.304 376.676L307.348 376.552L308.391 376.676L309.435 375.309L310.478 375.434L311.522 375.309L312.565 379.41L313.609 379.286L314.652 379.41L315.696 379.658L316.739 380.528L317.783 379.286L318.826 379.41L319.87 380.652L320.913 376.055L321.957 376.552L323 374.688L324.043 374.564L325.087 374.688L326.13 373.073L327.174 373.197L328.217 373.073L329.261 370.339L330.304 371.457L331.348 372.203L332.391 374.812L333.435 374.937L334.478 374.44L335.522 374.564L336.565 375.309L337.609 375.558L338.652 375.309L339.696 374.44L340.739 375.558L341.783 375.682L342.826 374.44L343.87 375.185L344.913 375.061L345.957 376.552L347 376.179L348.043 374.688L349.087 374.44L350.13 374.564L351.174 375.682L352.217 375.806L353.261 375.682L354.304 377.67L355.348 377.546L356.391 377.67L357.435 377.546L358.478 375.682L359.522 375.558L360.565 375.309L361.609 375.185L362.652 375.309L363.696 374.564H364.739L365.783 374.315L366.826 374.812L367.87 374.688L368.913 374.315L369.957 374.688L371 374.812L372.043 375.558L373.087 375.682L374.13 374.688L375.174 374.812L376.217 375.558L377.261 374.937L378.304 375.682L379.348 375.806L380.391 375.682L381.435 374.44L382.478 374.067L383.522 376.925L384.565 375.434L385.609 375.806L386.652 374.067L387.696 374.191L388.739 375.185L389.783 383.126L390.826 381.386H391.87L392.913 379.522L393.957 381.013L395 381.635L396.043 380.268L397.087 381.635H398.13L399.174 381.262L400.217 382.256L401.261 381.759L402.304 384.12L403.348 383.996L404.391 384.99L405.435 382.008L406.478 382.753L407.522 381.883L408.565 382.877L410.652 382.38L411.696 376.602L412.739 376.478L413.783 378.093L414.826 379.584L415.87 376.602L416.913 375.857L417.957 377.348L419 376.602L420.043 373.868L421.087 372.377L422.13 372.502L423.174 371.88L424.217 373.371L425.261 371.259L426.304 372.502L427.348 371.259L428.391 371.383L429.435 372.377L430.478 372.502L431.522 374.241L432.565 377.099L433.609 377.472L434.652 377.596L435.696 377.472L436.739 378.59L437.783 378.466L438.826 379.212L439.87 377.223L440.913 379.087L441.957 380.827L443 380.951L444.043 379.46L446.13 379.212L447.174 378.342L448.217 376.851L449.261 376.229L450.304 376.602L451.348 375.36L452.391 375.608H453.435L454.478 375.111L455.522 375.981L456.565 375.857L457.609 378.093L458.652 378.715L459.696 378.839L460.739 379.584L461.783 379.709L462.826 379.584L463.87 377.845L464.913 378.342L465.957 379.709L467 379.584L468.043 379.709L469.087 380.206L470.13 380.33L471.174 380.206L472.217 379.212L473.261 379.087H474.304L475.348 379.46L476.391 379.584L477.435 378.963L478.478 381.324L479.522 378.839L480.565 378.963L481.609 378.839L482.652 380.33L483.696 380.206L484.739 380.33L485.783 380.206L486.826 380.33L487.87 379.46L488.913 378.093L489.957 379.957L491 377.72L492.043 375.608L493.087 375.732L494.13 375.484L495.174 377.596L496.217 378.963L497.261 379.087L498.304 378.963L499.348 379.087L500.391 376.726L501.435 374.614L502.478 373.371L503.522 379.087L504.565 378.59L505.609 378.715L506.652 379.212L507.696 379.336L508.739 378.342H509.783L510.826 378.217L511.87 378.342L512.913 379.336L513.957 379.46L515 380.827" stroke="white" stroke-opacity="0.4" stroke-linejoin="round"/>
<path d="M89.9792 380.99H95.5112V380.042H93.0752C92.6312 380.042 92.0912 380.09 91.6352 380.126C93.6992 378.17 95.0792 376.382 95.0792 374.63C95.0792 373.058 94.0952 372.026 92.5232 372.026C91.4072 372.026 90.6512 372.542 89.9312 373.322L90.5672 373.946C91.0472 373.37 91.6712 372.926 92.3912 372.926C93.4832 372.926 94.0112 373.658 94.0112 374.666C94.0112 376.178 92.7392 377.93 89.9792 380.342V380.99ZM99.4434 381.146C101.111 381.146 102.179 379.622 102.179 376.562C102.179 373.514 101.111 372.026 99.4434 372.026C97.7634 372.026 96.6954 373.502 96.6954 376.562C96.6954 379.622 97.7634 381.146 99.4434 381.146ZM99.4434 380.27C98.4354 380.27 97.7634 379.154 97.7634 376.562C97.7634 373.994 98.4354 372.914 99.4434 372.914C100.439 372.914 101.111 373.994 101.111 376.562C101.111 379.154 100.439 380.27 99.4434 380.27ZM103.292 380.99H108.824V380.042H106.388C105.944 380.042 105.404 380.09 104.948 380.126C107.012 378.17 108.392 376.382 108.392 374.63C108.392 373.058 107.408 372.026 105.836 372.026C104.72 372.026 103.964 372.542 103.244 373.322L103.88 373.946C104.36 373.37 104.984 372.926 105.704 372.926C106.796 372.926 107.324 373.658 107.324 374.666C107.324 376.178 106.052 377.93 103.292 380.342V380.99ZM110.476 380.99H115.3V380.078H113.536V372.194H112.696C112.216 372.47 111.652 372.674 110.872 372.818V373.514H112.432V380.078H110.476V380.99ZM116.628 378.05H119.7V377.21H116.628V378.05ZM123.572 381.146C125.24 381.146 126.308 379.622 126.308 376.562C126.308 373.514 125.24 372.026 123.572 372.026C121.892 372.026 120.824 373.502 120.824 376.562C120.824 379.622 121.892 381.146 123.572 381.146ZM123.572 380.27C122.564 380.27 121.892 379.154 121.892 376.562C121.892 373.994 122.564 372.914 123.572 372.914C124.568 372.914 125.24 373.994 125.24 376.562C125.24 379.154 124.568 380.27 123.572 380.27ZM127.949 380.99H132.773V380.078H131.009V372.194H130.169C129.689 372.47 129.125 372.674 128.345 372.818V373.514H129.905V380.078H127.949V380.99Z" fill="white"/>
<rect opacity="0.6" width="3" height="24" transform="matrix(-1 0 0 1 145 363.99)" fill="#00CCFF"/>
<rect opacity="0.1" x="145" y="363.99" width="261" height="24" fill="#00CCFF"/>
<rect opacity="0.6" width="3" height="24" transform="matrix(-1 0 0 1 409 363.99)" fill="#00CCFF"/>
<path d="M417.979 380.99H423.511V380.042H421.075C420.631 380.042 420.091 380.09 419.635 380.126C421.699 378.17 423.079 376.382 423.079 374.63C423.079 373.058 422.095 372.026 420.523 372.026C419.407 372.026 418.651 372.542 417.931 373.322L418.567 373.946C419.047 373.37 419.671 372.926 420.391 372.926C421.483 372.926 422.011 373.658 422.011 374.666C422.011 376.178 420.739 377.93 417.979 380.342V380.99ZM427.443 381.146C429.111 381.146 430.179 379.622 430.179 376.562C430.179 373.514 429.111 372.026 427.443 372.026C425.763 372.026 424.695 373.502 424.695 376.562C424.695 379.622 425.763 381.146 427.443 381.146ZM427.443 380.27C426.435 380.27 425.763 379.154 425.763 376.562C425.763 373.994 426.435 372.914 427.443 372.914C428.439 372.914 429.111 373.994 429.111 376.562C429.111 379.154 428.439 380.27 427.443 380.27ZM431.292 380.99H436.824V380.042H434.388C433.944 380.042 433.404 380.09 432.948 380.126C435.012 378.17 436.392 376.382 436.392 374.63C436.392 373.058 435.408 372.026 433.836 372.026C432.72 372.026 431.964 372.542 431.244 373.322L431.88 373.946C432.36 373.37 432.984 372.926 433.704 372.926C434.796 372.926 435.324 373.658 435.324 374.666C435.324 376.178 434.052 377.93 431.292 380.342V380.99ZM438.476 380.99H443.3V380.078H441.536V372.194H440.696C440.216 372.47 439.652 372.674 438.872 372.818V373.514H440.432V380.078H438.476V380.99ZM444.628 378.05H447.7V377.21H444.628V378.05ZM449.292 380.99H454.116V380.078H452.352V372.194H451.512C451.032 372.47 450.468 372.674 449.688 372.818V373.514H451.248V380.078H449.292V380.99ZM455.421 380.99H460.953V380.042H458.517C458.073 380.042 457.533 380.09 457.077 380.126C459.141 378.17 460.521 376.382 460.521 374.63C460.521 373.058 459.537 372.026 457.965 372.026C456.849 372.026 456.093 372.542 455.373 373.322L456.009 373.946C456.489 373.37 457.113 372.926 457.833 372.926C458.925 372.926 459.453 373.658 459.453 374.666C459.453 376.178 458.181 377.93 455.421 380.342V380.99Z" fill="white"/>
<path d="M3.987 8.29375C2.883 8.29375 2.223 7.29775 2.091 5.47375C2.667 4.65775 3.339 4.34575 3.891 4.34575C4.959 4.34575 5.475 5.10175 5.475 6.28975C5.475 7.48975 4.827 8.29375 3.987 8.29375ZM6.351 0.925745C5.871 0.409746 5.211 0.0257456 4.299 0.0257456C2.595 0.0257456 1.047 1.34575 1.047 4.78975C1.047 7.69375 2.295 9.14575 3.987 9.14575C5.355 9.14575 6.507 7.99375 6.507 6.28975C6.507 4.45375 5.559 3.52975 4.071 3.52975C3.375 3.52975 2.607 3.93775 2.067 4.59775C2.115 1.86175 3.135 0.937746 4.335 0.937746C4.875 0.937746 5.403 1.18975 5.751 1.60975L6.351 0.925745ZM10.3673 9.14575C12.0353 9.14575 13.1033 7.62175 13.1033 4.56175C13.1033 1.51375 12.0353 0.0257456 10.3673 0.0257456C8.68725 0.0257456 7.61925 1.50175 7.61925 4.56175C7.61925 7.62175 8.68725 9.14575 10.3673 9.14575ZM10.3673 8.26975C9.35925 8.26975 8.68725 7.15375 8.68725 4.56175C8.68725 1.99375 9.35925 0.913746 10.3673 0.913746C11.3633 0.913746 12.0353 1.99375 12.0353 4.56175C12.0353 7.15375 11.3633 8.26975 10.3673 8.26975ZM17.0235 9.14575C18.6915 9.14575 19.7595 7.62175 19.7595 4.56175C19.7595 1.51375 18.6915 0.0257456 17.0235 0.0257456C15.3435 0.0257456 14.2755 1.50175 14.2755 4.56175C14.2755 7.62175 15.3435 9.14575 17.0235 9.14575ZM17.0235 8.26975C16.0155 8.26975 15.3435 7.15375 15.3435 4.56175C15.3435 1.99375 16.0155 0.913746 17.0235 0.913746C18.0195 0.913746 18.6915 1.99375 18.6915 4.56175C18.6915 7.15375 18.0195 8.26975 17.0235 8.26975ZM23.6798 9.14575C25.3478 9.14575 26.4158 7.62175 26.4158 4.56175C26.4158 1.51375 25.3478 0.0257456 23.6798 0.0257456C21.9998 0.0257456 20.9318 1.50175 20.9318 4.56175C20.9318 7.62175 21.9998 9.14575 23.6798 9.14575ZM23.6798 8.26975C22.6718 8.26975 21.9998 7.15375 21.9998 4.56175C21.9998 1.99375 22.6718 0.913746 23.6798 0.913746C24.6758 0.913746 25.3478 1.99375 25.3478 4.56175C25.3478 7.15375 24.6758 8.26975 23.6798 8.26975Z" fill="white" fill-opacity="0.6"/>
<path d="M35 4.48975H515" stroke="white" stroke-opacity="0.2" stroke-dasharray="2 2"/>
<path d="M3.507 72.9458C4.995 72.9458 6.387 71.8538 6.387 69.9218C6.387 67.9898 5.199 67.1258 3.735 67.1258C3.207 67.1258 2.811 67.2578 2.427 67.4738L2.643 64.9298H5.967V63.9938H1.683L1.407 68.1098L1.995 68.4698C2.499 68.1338 2.871 67.9538 3.459 67.9538C4.563 67.9538 5.283 68.6978 5.283 69.9578C5.283 71.2418 4.443 72.0338 3.411 72.0338C2.391 72.0338 1.755 71.5658 1.251 71.0618L0.711 71.7818C1.299 72.3698 2.139 72.9458 3.507 72.9458ZM10.3673 72.9458C12.0353 72.9458 13.1033 71.4218 13.1033 68.3618C13.1033 65.3138 12.0353 63.8258 10.3673 63.8258C8.68725 63.8258 7.61925 65.3018 7.61925 68.3618C7.61925 71.4218 8.68725 72.9458 10.3673 72.9458ZM10.3673 72.0698C9.35925 72.0698 8.68725 70.9538 8.68725 68.3618C8.68725 65.7938 9.35925 64.7138 10.3673 64.7138C11.3633 64.7138 12.0353 65.7938 12.0353 68.3618C12.0353 70.9538 11.3633 72.0698 10.3673 72.0698ZM17.0235 72.9458C18.6915 72.9458 19.7595 71.4218 19.7595 68.3618C19.7595 65.3138 18.6915 63.8258 17.0235 63.8258C15.3435 63.8258 14.2755 65.3018 14.2755 68.3618C14.2755 71.4218 15.3435 72.9458 17.0235 72.9458ZM17.0235 72.0698C16.0155 72.0698 15.3435 70.9538 15.3435 68.3618C15.3435 65.7938 16.0155 64.7138 17.0235 64.7138C18.0195 64.7138 18.6915 65.7938 18.6915 68.3618C18.6915 70.9538 18.0195 72.0698 17.0235 72.0698ZM23.6798 72.9458C25.3478 72.9458 26.4158 71.4218 26.4158 68.3618C26.4158 65.3138 25.3478 63.8258 23.6798 63.8258C21.9998 63.8258 20.9318 65.3018 20.9318 68.3618C20.9318 71.4218 21.9998 72.9458 23.6798 72.9458ZM23.6798 72.0698C22.6718 72.0698 21.9998 70.9538 21.9998 68.3618C21.9998 65.7938 22.6718 64.7138 23.6798 64.7138C24.6758 64.7138 25.3478 65.7938 25.3478 68.3618C25.3478 70.9538 24.6758 72.0698 23.6798 72.0698Z" fill="white" fill-opacity="0.6"/>
<path d="M35 68.2898H515" stroke="white" stroke-opacity="0.2" stroke-dasharray="2 2"/>
<path d="M3.543 136.746C5.103 136.746 6.363 135.81 6.363 134.238C6.363 133.038 5.535 132.246 4.491 132.006V131.958C5.427 131.61 6.063 130.902 6.063 129.834C6.063 128.418 4.983 127.626 3.507 127.626C2.487 127.626 1.707 128.07 1.047 128.682L1.635 129.378C2.127 128.886 2.751 128.526 3.459 128.502C4.371 128.526 4.947 129.066 4.947 129.918C4.947 130.866 4.323 131.598 2.511 131.598V132.438C4.539 132.438 5.247 133.146 5.247 134.202C5.247 135.21 4.503 135.834 3.459 135.834C2.463 135.834 1.791 135.366 1.275 134.826L0.723 135.546C1.299 136.17 2.163 136.746 3.543 136.746ZM10.3673 136.746C12.0353 136.746 13.1033 135.222 13.1033 132.162C13.1033 129.114 12.0353 127.626 10.3673 127.626C8.68725 127.626 7.61925 129.102 7.61925 132.162C7.61925 135.222 8.68725 136.746 10.3673 136.746ZM10.3673 135.87C9.35925 135.87 8.68725 134.754 8.68725 132.162C8.68725 129.594 9.35925 128.514 10.3673 128.514C11.3633 128.514 12.0353 129.594 12.0353 132.162C12.0353 134.754 11.3633 135.87 10.3673 135.87ZM17.0235 136.746C18.6915 136.746 19.7595 135.222 19.7595 132.162C19.7595 129.114 18.6915 127.626 17.0235 127.626C15.3435 127.626 14.2755 129.102 14.2755 132.162C14.2755 135.222 15.3435 136.746 17.0235 136.746ZM17.0235 135.87C16.0155 135.87 15.3435 134.754 15.3435 132.162C15.3435 129.594 16.0155 128.514 17.0235 128.514C18.0195 128.514 18.6915 129.594 18.6915 132.162C18.6915 134.754 18.0195 135.87 17.0235 135.87ZM23.6798 136.746C25.3478 136.746 26.4158 135.222 26.4158 132.162C26.4158 129.114 25.3478 127.626 23.6798 127.626C21.9998 127.626 20.9318 129.102 20.9318 132.162C20.9318 135.222 21.9998 136.746 23.6798 136.746ZM23.6798 135.87C22.6718 135.87 21.9998 134.754 21.9998 132.162C21.9998 129.594 22.6718 128.514 23.6798 128.514C24.6758 128.514 25.3478 129.594 25.3478 132.162C25.3478 134.754 24.6758 135.87 23.6798 135.87Z" fill="white" fill-opacity="0.6"/>
<path d="M35 132.09H515" stroke="white" stroke-opacity="0.2" stroke-dasharray="2 2"/>
<path d="M0.903 200.39H6.435V199.442H3.999C3.555 199.442 3.015 199.49 2.559 199.526C4.623 197.57 6.003 195.782 6.003 194.03C6.003 192.458 5.019 191.426 3.447 191.426C2.331 191.426 1.575 191.942 0.855 192.722L1.491 193.346C1.971 192.77 2.595 192.326 3.315 192.326C4.407 192.326 4.935 193.058 4.935 194.066C4.935 195.578 3.663 197.33 0.903 199.742V200.39ZM10.3673 200.546C12.0353 200.546 13.1033 199.022 13.1033 195.962C13.1033 192.914 12.0353 191.426 10.3673 191.426C8.68725 191.426 7.61925 192.902 7.61925 195.962C7.61925 199.022 8.68725 200.546 10.3673 200.546ZM10.3673 199.67C9.35925 199.67 8.68725 198.554 8.68725 195.962C8.68725 193.394 9.35925 192.314 10.3673 192.314C11.3633 192.314 12.0353 193.394 12.0353 195.962C12.0353 198.554 11.3633 199.67 10.3673 199.67ZM17.0235 200.546C18.6915 200.546 19.7595 199.022 19.7595 195.962C19.7595 192.914 18.6915 191.426 17.0235 191.426C15.3435 191.426 14.2755 192.902 14.2755 195.962C14.2755 199.022 15.3435 200.546 17.0235 200.546ZM17.0235 199.67C16.0155 199.67 15.3435 198.554 15.3435 195.962C15.3435 193.394 16.0155 192.314 17.0235 192.314C18.0195 192.314 18.6915 193.394 18.6915 195.962C18.6915 198.554 18.0195 199.67 17.0235 199.67ZM23.6798 200.546C25.3478 200.546 26.4158 199.022 26.4158 195.962C26.4158 192.914 25.3478 191.426 23.6798 191.426C21.9998 191.426 20.9318 192.902 20.9318 195.962C20.9318 199.022 21.9998 200.546 23.6798 200.546ZM23.6798 199.67C22.6718 199.67 21.9998 198.554 21.9998 195.962C21.9998 193.394 22.6718 192.314 23.6798 192.314C24.6758 192.314 25.3478 193.394 25.3478 195.962C25.3478 198.554 24.6758 199.67 23.6798 199.67Z" fill="white" fill-opacity="0.6"/>
<path d="M35 195.89H515" stroke="white" stroke-opacity="0.2" stroke-dasharray="2 2"/>
<path d="M1.431 264.19H6.255V263.278H4.491V255.394H3.651C3.171 255.67 2.607 255.874 1.827 256.018V256.714H3.387V263.278H1.431V264.19ZM10.3673 264.346C12.0353 264.346 13.1033 262.822 13.1033 259.762C13.1033 256.714 12.0353 255.226 10.3673 255.226C8.68725 255.226 7.61925 256.702 7.61925 259.762C7.61925 262.822 8.68725 264.346 10.3673 264.346ZM10.3673 263.47C9.35925 263.47 8.68725 262.354 8.68725 259.762C8.68725 257.194 9.35925 256.114 10.3673 256.114C11.3633 256.114 12.0353 257.194 12.0353 259.762C12.0353 262.354 11.3633 263.47 10.3673 263.47ZM17.0235 264.346C18.6915 264.346 19.7595 262.822 19.7595 259.762C19.7595 256.714 18.6915 255.226 17.0235 255.226C15.3435 255.226 14.2755 256.702 14.2755 259.762C14.2755 262.822 15.3435 264.346 17.0235 264.346ZM17.0235 263.47C16.0155 263.47 15.3435 262.354 15.3435 259.762C15.3435 257.194 16.0155 256.114 17.0235 256.114C18.0195 256.114 18.6915 257.194 18.6915 259.762C18.6915 262.354 18.0195 263.47 17.0235 263.47ZM23.6798 264.346C25.3478 264.346 26.4158 262.822 26.4158 259.762C26.4158 256.714 25.3478 255.226 23.6798 255.226C21.9998 255.226 20.9318 256.702 20.9318 259.762C20.9318 262.822 21.9998 264.346 23.6798 264.346ZM23.6798 263.47C22.6718 263.47 21.9998 262.354 21.9998 259.762C21.9998 257.194 22.6718 256.114 23.6798 256.114C24.6758 256.114 25.3478 257.194 25.3478 259.762C25.3478 262.354 24.6758 263.47 23.6798 263.47Z" fill="white" fill-opacity="0.6"/>
<path d="M35 259.69H515" stroke="white" stroke-opacity="0.2" stroke-dasharray="2 2"/>
<path d="M23.6798 328.146C25.3478 328.146 26.4158 326.622 26.4158 323.562C26.4158 320.514 25.3478 319.026 23.6798 319.026C21.9998 319.026 20.9318 320.502 20.9318 323.562C20.9318 326.622 21.9998 328.146 23.6798 328.146ZM23.6798 327.27C22.6718 327.27 21.9998 326.154 21.9998 323.562C21.9998 320.994 22.6718 319.914 23.6798 319.914C24.6758 319.914 25.3478 320.994 25.3478 323.562C25.3478 326.154 24.6758 327.27 23.6798 327.27Z" fill="white" fill-opacity="0.6"/>
<rect x="35" y="322.99" width="480" height="1" fill="white" fill-opacity="0.4"/>
<path d="M13.9792 343.99H19.5112V343.042H17.0752C16.6312 343.042 16.0912 343.09 15.6352 343.126C17.6992 341.17 19.0792 339.382 19.0792 337.63C19.0792 336.058 18.0952 335.026 16.5232 335.026C15.4072 335.026 14.6512 335.542 13.9312 336.322L14.5672 336.946C15.0472 336.37 15.6712 335.926 16.3912 335.926C17.4832 335.926 18.0112 336.658 18.0112 337.666C18.0112 339.178 16.7392 340.93 13.9792 343.342V343.99ZM23.4434 344.146C25.1114 344.146 26.1794 342.622 26.1794 339.562C26.1794 336.514 25.1114 335.026 23.4434 335.026C21.7634 335.026 20.6954 336.502 20.6954 339.562C20.6954 342.622 21.7634 344.146 23.4434 344.146ZM23.4434 343.27C22.4354 343.27 21.7634 342.154 21.7634 339.562C21.7634 336.994 22.4354 335.914 23.4434 335.914C24.4394 335.914 25.1114 336.994 25.1114 339.562C25.1114 342.154 24.4394 343.27 23.4434 343.27ZM27.2917 343.99H32.8237V343.042H30.3877C29.9437 343.042 29.4037 343.09 28.9477 343.126C31.0117 341.17 32.3917 339.382 32.3917 337.63C32.3917 336.058 31.4077 335.026 29.8357 335.026C28.7197 335.026 27.9637 335.542 27.2437 336.322L27.8797 336.946C28.3597 336.37 28.9837 335.926 29.7037 335.926C30.7957 335.926 31.3237 336.658 31.3237 337.666C31.3237 339.178 30.0517 340.93 27.2917 343.342V343.99ZM34.4759 343.99H39.2999V343.078H37.5359V335.194H36.6959C36.2159 335.47 35.6519 335.674 34.8719 335.818V336.514H36.4319V343.078H34.4759V343.99ZM40.6282 341.05H43.7002V340.21H40.6282V341.05ZM47.5723 344.146C49.2403 344.146 50.3083 342.622 50.3083 339.562C50.3083 336.514 49.2403 335.026 47.5723 335.026C45.8923 335.026 44.8243 336.502 44.8243 339.562C44.8243 342.622 45.8923 344.146 47.5723 344.146ZM47.5723 343.27C46.5643 343.27 45.8923 342.154 45.8923 339.562C45.8923 336.994 46.5643 335.914 47.5723 335.914C48.5683 335.914 49.2403 336.994 49.2403 339.562C49.2403 342.154 48.5683 343.27 47.5723 343.27ZM51.9486 343.99H56.7726V343.078H55.0086V335.194H54.1686C53.6886 335.47 53.1246 335.674 52.3446 335.818V336.514H53.9046V343.078H51.9486V343.99Z" fill="white" fill-opacity="0.6"/>
<rect x="35" y="322.99" width="1" height="1" fill="white" fill-opacity="0.4"/>
<rect x="35" y="323.99" width="1" height="3" fill="white" fill-opacity="0.4"/>
<path d="M253.979 343.99H259.511V343.042H257.075C256.631 343.042 256.091 343.09 255.635 343.126C257.699 341.17 259.079 339.382 259.079 337.63C259.079 336.058 258.095 335.026 256.523 335.026C255.407 335.026 254.651 335.542 253.931 336.322L254.567 336.946C255.047 336.37 255.671 335.926 256.391 335.926C257.483 335.926 258.011 336.658 258.011 337.666C258.011 339.178 256.739 340.93 253.979 343.342V343.99ZM263.443 344.146C265.111 344.146 266.179 342.622 266.179 339.562C266.179 336.514 265.111 335.026 263.443 335.026C261.763 335.026 260.695 336.502 260.695 339.562C260.695 342.622 261.763 344.146 263.443 344.146ZM263.443 343.27C262.435 343.27 261.763 342.154 261.763 339.562C261.763 336.994 262.435 335.914 263.443 335.914C264.439 335.914 265.111 336.994 265.111 339.562C265.111 342.154 264.439 343.27 263.443 343.27ZM267.292 343.99H272.824V343.042H270.388C269.944 343.042 269.404 343.09 268.948 343.126C271.012 341.17 272.392 339.382 272.392 337.63C272.392 336.058 271.408 335.026 269.836 335.026C268.72 335.026 267.964 335.542 267.244 336.322L267.88 336.946C268.36 336.37 268.984 335.926 269.704 335.926C270.796 335.926 271.324 336.658 271.324 337.666C271.324 339.178 270.052 340.93 267.292 343.342V343.99ZM274.476 343.99H279.3V343.078H277.536V335.194H276.696C276.216 335.47 275.652 335.674 274.872 335.818V336.514H276.432V343.078H274.476V343.99ZM280.628 341.05H283.7V340.21H280.628V341.05ZM287.572 344.146C289.24 344.146 290.308 342.622 290.308 339.562C290.308 336.514 289.24 335.026 287.572 335.026C285.892 335.026 284.824 336.502 284.824 339.562C284.824 342.622 285.892 344.146 287.572 344.146ZM287.572 343.27C286.564 343.27 285.892 342.154 285.892 339.562C285.892 336.994 286.564 335.914 287.572 335.914C288.568 335.914 289.24 336.994 289.24 339.562C289.24 342.154 288.568 343.27 287.572 343.27ZM294.505 343.294C293.401 343.294 292.741 342.298 292.609 340.474C293.185 339.658 293.857 339.346 294.409 339.346C295.477 339.346 295.993 340.102 295.993 341.29C295.993 342.49 295.345 343.294 294.505 343.294ZM296.869 335.926C296.389 335.41 295.729 335.026 294.817 335.026C293.113 335.026 291.565 336.346 291.565 339.79C291.565 342.694 292.813 344.146 294.505 344.146C295.873 344.146 297.025 342.994 297.025 341.29C297.025 339.454 296.077 338.53 294.589 338.53C293.893 338.53 293.125 338.938 292.585 339.598C292.633 336.862 293.653 335.938 294.853 335.938C295.393 335.938 295.921 336.19 296.269 336.61L296.869 335.926Z" fill="white" fill-opacity="0.6"/>
<rect x="275" y="322.99" width="1" height="1" fill="white" fill-opacity="0.2"/>
<rect x="275" y="323.99" width="1" height="3" fill="white" fill-opacity="0.2"/>
<path d="M493.479 343.99H499.011V343.042H496.575C496.131 343.042 495.591 343.09 495.135 343.126C497.199 341.17 498.579 339.382 498.579 337.63C498.579 336.058 497.595 335.026 496.023 335.026C494.907 335.026 494.151 335.542 493.431 336.322L494.067 336.946C494.547 336.37 495.171 335.926 495.891 335.926C496.983 335.926 497.511 336.658 497.511 337.666C497.511 339.178 496.239 340.93 493.479 343.342V343.99ZM502.943 344.146C504.611 344.146 505.679 342.622 505.679 339.562C505.679 336.514 504.611 335.026 502.943 335.026C501.263 335.026 500.195 336.502 500.195 339.562C500.195 342.622 501.263 344.146 502.943 344.146ZM502.943 343.27C501.935 343.27 501.263 342.154 501.263 339.562C501.263 336.994 501.935 335.914 502.943 335.914C503.939 335.914 504.611 336.994 504.611 339.562C504.611 342.154 503.939 343.27 502.943 343.27ZM506.792 343.99H512.324V343.042H509.888C509.444 343.042 508.904 343.09 508.448 343.126C510.512 341.17 511.892 339.382 511.892 337.63C511.892 336.058 510.908 335.026 509.336 335.026C508.22 335.026 507.464 335.542 506.744 336.322L507.38 336.946C507.86 336.37 508.484 335.926 509.204 335.926C510.296 335.926 510.824 336.658 510.824 337.666C510.824 339.178 509.552 340.93 506.792 343.342V343.99ZM513.976 343.99H518.8V343.078H517.036V335.194H516.196C515.716 335.47 515.152 335.674 514.372 335.818V336.514H515.932V343.078H513.976V343.99ZM520.128 341.05H523.2V340.21H520.128V341.05ZM524.792 343.99H529.616V343.078H527.852V335.194H527.012C526.532 335.47 525.968 335.674 525.188 335.818V336.514H526.748V343.078H524.792V343.99ZM530.921 343.99H536.453V343.042H534.017C533.573 343.042 533.033 343.09 532.577 343.126C534.641 341.17 536.021 339.382 536.021 337.63C536.021 336.058 535.037 335.026 533.465 335.026C532.349 335.026 531.593 335.542 530.873 336.322L531.509 336.946C531.989 336.37 532.613 335.926 533.333 335.926C534.425 335.926 534.953 336.658 534.953 337.666C534.953 339.178 533.681 340.93 530.921 343.342V343.99Z" fill="white" fill-opacity="0.6"/>
<rect x="514.5" y="322.99" width="1" height="1" fill="white" fill-opacity="0.2"/>
<rect x="514.5" y="323.99" width="1" height="3" fill="white" fill-opacity="0.2"/>
<path opacity="0.2" d="M37 124.99L35 125.99V322.99H515V255.99L513 257.99L511 259.99L509 251.99L507 258.99L505 252.99L503 276.99L501 268.99L499 269.99L497 250.99L495 254.99L493 246.99L491 249.99H489L487 238.99L485 249.99L483 244.99L481 232.99L479 247.99H477L475 261.99L473 181.99L471 173.99L469 172.99L467 186.99L465 183.99L463 195.99L461 172.99L459 175.99L457 185.99L455 186.99L453 185.99L451 179.99L449 184.99L447 178.99L445 177.99L443 185.99L441 184.99L439 178.99L437 177.99L435 174.99L433 177.99L431 178.99L429 174.99L427 176.99H425L423 182.99L421 181.99L419 182.99L417 184.99L415 185.99L413 200.99L411 201.99L409 200.99L407 201.99L405 185.99L403 186.99L401 185.99L399 176.99L397 175.99L395 177.99L393 189.99L391 192.99L389 180.99L387 181.99L385 175.99L383 185.99L381 184.99L379 175.99L377 182.99L375 184.99L373 182.99L371 176.99L369 175.99L367 179.99L365 178.99L363 157.99L361 151.99L359 142.99L357 164.99L355 165.99L353 164.99L351 177.99L349 176.99L347 177.99L345 192.99L343 188.99L341 225.99L339 215.99L337 214.99L335 224.99L333 217.99L331 215.99L329 214.99L327 215.99L325 182.99L323 183.99L321 182.99L319 193.99L317 192.99L315 193.99L313 192.99L311 181.99L309 183.99L307 181.99L305 180.99H303L301 178.99L299 193.99L297 192.99L295 193.99L293 192.99L291 193.99L289 192.99L287 193.99L285 192.99L283 178.99L281 177.99L279 178.99L277 177.99H275L273 176.99L271 177.99L269 197.99L267 199.99L265 189.99L263 190.99L261 197.99L259 186.99L257 185.99L255 177.99L253 176.99L251 177.99H249L247 185.99L245 184.99L243 180.99L241 179.99L239 183.99L237 137.99L235 147.99L233 164.99L231 183.99L229 182.99L227 183.99L225 182.99L223 171.99L221 154.99L219 156.99L217 155.99L215 172.99L213 190.99L211 175.99L209 186.99L207 193.99L205 192.99L203 193.99L201 192.99L199 193.99L197 181.99L195 182.99L193 181.99L191 201.99L189 182.99L187 187.99L185 186.99L183 183.99H181L179 184.99L177 192.99L175 193.99L173 192.99L171 188.99L169 187.99L167 188.99L165 177.99L163 173.99L161 187.99L159 188.99L157 187.99L155 181.99L153 180.99L151 175.99L149 157.99L147 158.99L145 151.99L143 155.99H141L139 153.99L137 163.99L135 160.99L133 165.99L131 177.99L129 184.99L127 185.99L125 186.99L123 198.99L121 197.99L119 183.99L117 168.99L115 184.99L113 178.99L111 179.99L109 170.99L107 171.99L105 170.99L103 167.99L101 144.99L99 130.99L97 129.99L95 121.99L93 120.99L91 130.99L89 120.99L87 137.99L85 125.99L83 130.99L81 129.99L79 141.99L77 163.99L75 169.99L73 157.99L71 163.99L69 187.99L67 175.99L65 162.99L63 163.99L61 161.99L59 150.99L57 153.99L55 152.99L53 151.99L51 152.99L49 151.99L47 148.99L45 120.99L43 121.99L41 130.99L39 131.99L37 124.99Z" fill="url(#paint0_linear_2025_410)"/>
<path d="M35 125.99L37 124.99L39 131.99L41 130.99L43 121.99L45 120.99L47 148.99L49 151.99L51 152.99L53 151.99L55 152.99L57 153.99L59 150.99L61 161.99L63 163.99L65 162.99L67 175.99L69 187.99L71 163.99L73 157.99L75 169.99L77 163.99L79 141.99L81 129.99L83 130.99L85 125.99L87 137.99L89 120.99L91 130.99L93 120.99L95 121.99L97 129.99L99 130.99L101 144.99L103 167.99L105 170.99L107 171.99L109 170.99L111 179.99L113 178.99L115 184.99L117 168.99L119 183.99L121 197.99L123 198.99L125 186.99L127 185.99L129 184.99L131 177.99L133 165.99L135 160.99L137 163.99L139 153.99L141 155.99H143L145 151.99L147 158.99L149 157.99L151 175.99L153 180.99L155 181.99L157 187.99L159 188.99L161 187.99L163 173.99L165 177.99L167 188.99L169 187.99L171 188.99L173 192.99L175 193.99L177 192.99L179 184.99L181 183.99H183L185 186.99L187 187.99L189 182.99L191 201.99L193 181.99L195 182.99L197 181.99L199 193.99L201 192.99L203 193.99L205 192.99L207 193.99L209 186.99L211 175.99L213 190.99L215 172.99L217 155.99L219 156.99L221 154.99L223 171.99L225 182.99L227 183.99L229 182.99L231 183.99L233 164.99L235 147.99L237 137.99L239 183.99L241 179.99L243 180.99L245 184.99L247 185.99L249 177.99H251L253 176.99L255 177.99L257 185.99L259 186.99L261 197.99L263 190.99L265 189.99L267 199.99L269 197.99L271 177.99L273 176.99L275 177.99H277L279 178.99L281 177.99L283 178.99L285 192.99L287 193.99L289 192.99L291 193.99L293 192.99L295 193.99L297 192.99L299 193.99L301 178.99L303 180.99H305L307 181.99L309 183.99L311 181.99L313 192.99L315 193.99L317 192.99L319 193.99L321 182.99L323 183.99L325 182.99L327 215.99L329 214.99L331 215.99L333 217.99L335 224.99L337 214.99L339 215.99L341 225.99L343 188.99L345 192.99L347 177.99L349 176.99L351 177.99L353 164.99L355 165.99L357 164.99L359 142.99L361 151.99L363 157.99L365 178.99L367 179.99L369 175.99L371 176.99L373 182.99L375 184.99L377 182.99L379 175.99L381 184.99L383 185.99L385 175.99L387 181.99L389 180.99L391 192.99L393 189.99L395 177.99L397 175.99L399 176.99L401 185.99L403 186.99L405 185.99L407 201.99L409 200.99L411 201.99L413 200.99L415 185.99L417 184.99L419 182.99L421 181.99L423 182.99L425 176.99H427L429 174.99L431 178.99L433 177.99L435 174.99L437 177.99L439 178.99L441 184.99L443 185.99L445 177.99L447 178.99L449 184.99L451 179.99L453 185.99L455 186.99L457 185.99L459 175.99L461 172.99L463 195.99L465 183.99L467 186.99L469 172.99L471 173.99L473 181.99L475 261.99L477 247.99H479L481 232.99L483 244.99L485 249.99L487 238.99L489 249.99H491L493 246.99L495 254.99L497 250.99L499 269.99L501 268.99L503 276.99L505 252.99L507 258.99L509 251.99L511 259.99L513 257.99L515 255.99" stroke="#00CCFF" stroke-linejoin="round"/>
<defs>
<linearGradient id="paint0_linear_2025_410" x1="275" y1="120.99" x2="275" y2="322.99" gradientUnits="userSpaceOnUse">
<stop stop-color="#00CCFF"/>
<stop offset="1" stop-color="#00CCFF"/>
</linearGradient>
</defs>
</svg>
