<svg width="264" height="185" viewBox="0 0 264 185" fill="none" xmlns="http://www.w3.org/2000/svg">
<path d="M113 5.98975L177 67.9897L113 129.99L49 67.9897L113 5.98975Z" fill="white" fill-opacity="0.04"/>
<path d="M50.2347 67.4897L112.5 7.17027V67.4897H50.2347ZM113.5 67.4897V7.17027L175.765 67.4897H113.5ZM50.2347 68.4897H112.5V128.809L50.2347 68.4897ZM113.5 128.809V68.4897H175.765L113.5 128.809Z" stroke="white" stroke-opacity="0.1"/>
<path d="M63.9408 67.9897L113 20.4637L162.059 67.9897L113 115.516L63.9408 67.9897Z" stroke="white" stroke-opacity="0.1"/>
<path d="M78.1631 67.9897L113 34.2414L147.837 67.9897L113 101.738L78.1631 67.9897Z" stroke="white" stroke-opacity="0.1"/>
<path d="M92.3852 67.9897L113 48.0192L133.615 67.9897L113 87.9602L92.3852 67.9897Z" stroke="white" stroke-opacity="0.1"/>
<path d="M119.392 67.9897L113 61.797L106.607 67.9897L113 74.1825L119.392 67.9897Z" stroke="white" stroke-opacity="0.1"/>
<path d="M64.1111 67.9897L113 58.5175L152.556 67.9897L113 98.1286L64.1111 67.9897Z" fill="#00CCFF" fill-opacity="0.26" stroke="#00CCFF"/>
<ellipse cx="113" cy="58.5175" rx="0.888889" ry="0.861111" fill="#ADE1FF"/>
<ellipse cx="152.556" cy="67.9897" rx="0.888889" ry="0.861111" fill="#ADE1FF"/>
<ellipse cx="113" cy="98.1286" rx="0.888889" ry="0.861111" fill="#ADE1FF"/>
<ellipse cx="64.1111" cy="67.9897" rx="0.888889" ry="0.861111" fill="#ADE1FF"/>
<path d="M86.5554 67.9897L113 51.198L129 67.9897L113 122.24L86.5554 67.9897Z" fill="#00CCFF" fill-opacity="0.25" stroke="#00CCFF"/>
<ellipse cx="113" cy="51.198" rx="0.888889" ry="0.861111" fill="#268AFF"/>
<ellipse cx="86.7777" cy="67.9897" rx="0.888889" ry="0.861111" fill="#268AFF"/>
<ellipse cx="129" cy="67.9897" rx="0.888889" ry="0.861111" fill="#268AFF"/>
<ellipse cx="113" cy="122.24" rx="0.888889" ry="0.861111" fill="#268AFF"/>
<path d="M75.8888 67.9897L113 27.0869L139.667 67.9897L113 77.4619L75.8888 67.9897Z" fill="#00CCFF" fill-opacity="0.28" stroke="#00CCFF"/>
<ellipse cx="113" cy="27.0869" rx="0.888889" ry="0.861111" fill="#3DFFDC"/>
<ellipse cx="139.667" cy="67.9897" rx="0.888889" ry="0.861111" fill="#00CCFF"/>
<ellipse cx="113" cy="77.4619" rx="0.888889" ry="0.861111" fill="#00CCFF"/>
<ellipse cx="76.1111" cy="67.9897" rx="0.888889" ry="0.861111" fill="#00CCFF"/>
<path fill-rule="evenodd" clip-rule="evenodd" d="M8.82929 174.99H11C11.5523 174.99 12 175.437 12 175.99C12 176.542 11.5523 176.99 11 176.99H8.82929C8.41746 178.155 7.30622 178.99 6 178.99C4.69378 178.99 3.58254 178.155 3.17071 176.99H1C0.447715 176.99 0 176.542 0 175.99C0 175.437 0.447715 174.99 1 174.99H3.17071C3.58254 173.825 4.69378 172.99 6 172.99C7.30622 172.99 8.41746 173.825 8.82929 174.99Z" fill="#3DFFDC"/>
<path d="M22.256 181.146C22.544 181.146 22.736 181.11 22.892 181.05L22.736 180.21C22.616 180.234 22.568 180.234 22.508 180.234C22.34 180.234 22.196 180.102 22.196 179.766V171.438H21.104V179.694C21.104 180.618 21.44 181.146 22.256 181.146ZM27.1539 181.146C28.0419 181.146 28.7379 180.846 29.3139 180.474L28.9179 179.754C28.4379 180.078 27.9219 180.27 27.2859 180.27C26.0499 180.27 25.1979 179.382 25.1259 177.99H29.5179C29.5419 177.834 29.5659 177.606 29.5659 177.366C29.5659 175.506 28.6299 174.306 26.9739 174.306C25.4619 174.306 24.0339 175.626 24.0339 177.738C24.0339 179.886 25.4259 181.146 27.1539 181.146ZM25.1139 177.21C25.2459 175.926 26.0619 175.182 26.9859 175.182C28.0059 175.182 28.6059 175.89 28.6059 177.21H25.1139ZM33.2375 183.99C35.2535 183.99 36.5255 182.946 36.5255 181.734C36.5255 180.666 35.7695 180.186 34.2575 180.186H32.9855C32.1095 180.186 31.8455 179.898 31.8455 179.478C31.8455 179.118 32.0255 178.902 32.2655 178.698C32.5535 178.842 32.9135 178.926 33.2375 178.926C34.5575 178.926 35.6135 178.05 35.6135 176.658C35.6135 176.094 35.3975 175.614 35.0855 175.314H36.4175V174.474H34.1495C33.9215 174.39 33.5975 174.306 33.2375 174.306C31.9175 174.306 30.7895 175.206 30.7895 176.634C30.7895 177.414 31.2095 178.038 31.6415 178.386V178.434C31.3055 178.674 30.9095 179.106 30.9095 179.646C30.9095 180.162 31.1615 180.51 31.5095 180.714V180.762C30.8975 181.158 30.5375 181.686 30.5375 182.238C30.5375 183.366 31.6415 183.99 33.2375 183.99ZM33.2375 178.182C32.4815 178.182 31.8455 177.582 31.8455 176.634C31.8455 175.674 32.4695 175.11 33.2375 175.11C34.0055 175.11 34.6175 175.686 34.6175 176.634C34.6175 177.582 33.9815 178.182 33.2375 178.182ZM33.3935 183.246C32.2055 183.246 31.4975 182.79 31.4975 182.094C31.4975 181.71 31.7015 181.326 32.1695 180.99C32.4575 181.062 32.7695 181.098 33.0095 181.098H34.1375C35.0015 181.098 35.4695 181.302 35.4695 181.902C35.4695 182.586 34.6415 183.246 33.3935 183.246ZM40.2554 181.146C41.1434 181.146 41.8394 180.846 42.4154 180.474L42.0194 179.754C41.5394 180.078 41.0234 180.27 40.3874 180.27C39.1514 180.27 38.2994 179.382 38.2274 177.99H42.6194C42.6434 177.834 42.6674 177.606 42.6674 177.366C42.6674 175.506 41.7314 174.306 40.0754 174.306C38.5634 174.306 37.1354 175.626 37.1354 177.738C37.1354 179.886 38.5274 181.146 40.2554 181.146ZM38.2154 177.21C38.3474 175.926 39.1634 175.182 40.0874 175.182C41.1074 175.182 41.7074 175.89 41.7074 177.21H38.2154ZM44.272 180.99H45.364V176.262C46.024 175.602 46.48 175.266 47.152 175.266C48.016 175.266 48.388 175.782 48.388 177.006V180.99H49.48V176.862C49.48 175.194 48.856 174.306 47.488 174.306C46.6 174.306 45.928 174.798 45.304 175.41H45.268L45.172 174.474H44.272V180.99ZM53.8279 181.146C54.6079 181.146 55.2919 180.726 55.8079 180.222H55.8319L55.9399 180.99H56.8279V171.438H55.7359V173.946L55.7959 175.074C55.2199 174.594 54.7279 174.306 53.9599 174.306C52.4719 174.306 51.1399 175.626 51.1399 177.738C51.1399 179.91 52.1959 181.146 53.8279 181.146ZM54.0679 180.234C52.9159 180.234 52.2679 179.298 52.2679 177.726C52.2679 176.238 53.0959 175.23 54.1519 175.23C54.6919 175.23 55.1839 175.422 55.7359 175.914V179.334C55.1959 179.934 54.6679 180.234 54.0679 180.234ZM59.0013 180.99H63.8253V180.078H62.0613V172.194H61.2213C60.7413 172.47 60.1773 172.674 59.3973 172.818V173.514H60.9573V180.078H59.0013V180.99Z" fill="white" fill-opacity="0.6"/>
<path fill-rule="evenodd" clip-rule="evenodd" d="M89.8293 174.99H92C92.5523 174.99 93 175.437 93 175.99C93 176.542 92.5523 176.99 92 176.99H89.8293C89.4175 178.155 88.3062 178.99 87 178.99C85.6938 178.99 84.5825 178.155 84.1707 176.99H82C81.4477 176.99 81 176.542 81 175.99C81 175.437 81.4477 174.99 82 174.99H84.1707C84.5825 173.825 85.6938 172.99 87 172.99C88.3062 172.99 89.4175 173.825 89.8293 174.99Z" fill="#268AFF"/>
<path d="M103.256 181.146C103.544 181.146 103.736 181.11 103.892 181.05L103.736 180.21C103.616 180.234 103.568 180.234 103.508 180.234C103.34 180.234 103.196 180.102 103.196 179.766V171.438H102.104V179.694C102.104 180.618 102.44 181.146 103.256 181.146ZM108.154 181.146C109.042 181.146 109.738 180.846 110.314 180.474L109.918 179.754C109.438 180.078 108.922 180.27 108.286 180.27C107.05 180.27 106.198 179.382 106.126 177.99H110.518C110.542 177.834 110.566 177.606 110.566 177.366C110.566 175.506 109.63 174.306 107.974 174.306C106.462 174.306 105.034 175.626 105.034 177.738C105.034 179.886 106.426 181.146 108.154 181.146ZM106.114 177.21C106.246 175.926 107.062 175.182 107.986 175.182C109.006 175.182 109.606 175.89 109.606 177.21H106.114ZM114.238 183.99C116.254 183.99 117.526 182.946 117.526 181.734C117.526 180.666 116.77 180.186 115.258 180.186H113.986C113.11 180.186 112.846 179.898 112.846 179.478C112.846 179.118 113.026 178.902 113.266 178.698C113.554 178.842 113.914 178.926 114.238 178.926C115.558 178.926 116.614 178.05 116.614 176.658C116.614 176.094 116.398 175.614 116.086 175.314H117.418V174.474H115.15C114.922 174.39 114.598 174.306 114.238 174.306C112.918 174.306 111.79 175.206 111.79 176.634C111.79 177.414 112.21 178.038 112.642 178.386V178.434C112.306 178.674 111.91 179.106 111.91 179.646C111.91 180.162 112.162 180.51 112.51 180.714V180.762C111.898 181.158 111.538 181.686 111.538 182.238C111.538 183.366 112.642 183.99 114.238 183.99ZM114.238 178.182C113.482 178.182 112.846 177.582 112.846 176.634C112.846 175.674 113.47 175.11 114.238 175.11C115.006 175.11 115.618 175.686 115.618 176.634C115.618 177.582 114.982 178.182 114.238 178.182ZM114.394 183.246C113.206 183.246 112.498 182.79 112.498 182.094C112.498 181.71 112.701 181.326 113.17 180.99C113.458 181.062 113.77 181.098 114.01 181.098H115.138C116.002 181.098 116.47 181.302 116.47 181.902C116.47 182.586 115.642 183.246 114.394 183.246ZM121.255 181.146C122.143 181.146 122.839 180.846 123.415 180.474L123.019 179.754C122.539 180.078 122.023 180.27 121.387 180.27C120.151 180.27 119.299 179.382 119.227 177.99H123.619C123.643 177.834 123.667 177.606 123.667 177.366C123.667 175.506 122.731 174.306 121.075 174.306C119.563 174.306 118.135 175.626 118.135 177.738C118.135 179.886 119.527 181.146 121.255 181.146ZM119.215 177.21C119.347 175.926 120.163 175.182 121.087 175.182C122.107 175.182 122.707 175.89 122.707 177.21H119.215ZM125.272 180.99H126.364V176.262C127.024 175.602 127.48 175.266 128.152 175.266C129.016 175.266 129.388 175.782 129.388 177.006V180.99H130.48V176.862C130.48 175.194 129.856 174.306 128.488 174.306C127.6 174.306 126.928 174.798 126.304 175.41H126.268L126.172 174.474H125.272V180.99ZM134.828 181.146C135.608 181.146 136.292 180.726 136.808 180.222H136.832L136.94 180.99H137.828V171.438H136.736V173.946L136.796 175.074C136.22 174.594 135.728 174.306 134.96 174.306C133.472 174.306 132.14 175.626 132.14 177.738C132.14 179.91 133.196 181.146 134.828 181.146ZM135.068 180.234C133.916 180.234 133.268 179.298 133.268 177.726C133.268 176.238 134.096 175.23 135.152 175.23C135.692 175.23 136.184 175.422 136.736 175.914V179.334C136.196 179.934 135.668 180.234 135.068 180.234ZM139.473 180.99H145.005V180.042H142.569C142.125 180.042 141.585 180.09 141.129 180.126C143.193 178.17 144.573 176.382 144.573 174.63C144.573 173.058 143.589 172.026 142.017 172.026C140.901 172.026 140.145 172.542 139.425 173.322L140.061 173.946C140.541 173.37 141.165 172.926 141.885 172.926C142.977 172.926 143.505 173.658 143.505 174.666C143.505 176.178 142.233 177.93 139.473 180.342V180.99Z" fill="white" fill-opacity="0.6"/>
<path fill-rule="evenodd" clip-rule="evenodd" d="M170.829 174.99H173C173.552 174.99 174 175.437 174 175.99C174 176.542 173.552 176.99 173 176.99H170.829C170.417 178.155 169.306 178.99 168 178.99C166.694 178.99 165.583 178.155 165.171 176.99H163C162.448 176.99 162 176.542 162 175.99C162 175.437 162.448 174.99 163 174.99H165.171C165.583 173.825 166.694 172.99 168 172.99C169.306 172.99 170.417 173.825 170.829 174.99Z" fill="#1ED6FF"/>
<path d="M184.256 181.146C184.544 181.146 184.736 181.11 184.892 181.05L184.736 180.21C184.616 180.234 184.568 180.234 184.508 180.234C184.34 180.234 184.196 180.102 184.196 179.766V171.438H183.104V179.694C183.104 180.618 183.44 181.146 184.256 181.146ZM189.154 181.146C190.042 181.146 190.738 180.846 191.314 180.474L190.918 179.754C190.438 180.078 189.922 180.27 189.286 180.27C188.05 180.27 187.198 179.382 187.126 177.99H191.518C191.542 177.834 191.566 177.606 191.566 177.366C191.566 175.506 190.63 174.306 188.974 174.306C187.462 174.306 186.034 175.626 186.034 177.738C186.034 179.886 187.426 181.146 189.154 181.146ZM187.114 177.21C187.246 175.926 188.062 175.182 188.986 175.182C190.006 175.182 190.606 175.89 190.606 177.21H187.114ZM195.238 183.99C197.254 183.99 198.526 182.946 198.526 181.734C198.526 180.666 197.77 180.186 196.258 180.186H194.986C194.11 180.186 193.846 179.898 193.846 179.478C193.846 179.118 194.026 178.902 194.266 178.698C194.554 178.842 194.914 178.926 195.238 178.926C196.558 178.926 197.614 178.05 197.614 176.658C197.614 176.094 197.398 175.614 197.086 175.314H198.418V174.474H196.15C195.922 174.39 195.598 174.306 195.238 174.306C193.918 174.306 192.79 175.206 192.79 176.634C192.79 177.414 193.21 178.038 193.642 178.386V178.434C193.306 178.674 192.91 179.106 192.91 179.646C192.91 180.162 193.162 180.51 193.51 180.714V180.762C192.898 181.158 192.538 181.686 192.538 182.238C192.538 183.366 193.642 183.99 195.238 183.99ZM195.238 178.182C194.482 178.182 193.846 177.582 193.846 176.634C193.846 175.674 194.47 175.11 195.238 175.11C196.006 175.11 196.618 175.686 196.618 176.634C196.618 177.582 195.982 178.182 195.238 178.182ZM195.394 183.246C194.206 183.246 193.498 182.79 193.498 182.094C193.498 181.71 193.701 181.326 194.17 180.99C194.458 181.062 194.77 181.098 195.01 181.098H196.138C197.002 181.098 197.47 181.302 197.47 181.902C197.47 182.586 196.642 183.246 195.394 183.246ZM202.255 181.146C203.143 181.146 203.839 180.846 204.415 180.474L204.019 179.754C203.539 180.078 203.023 180.27 202.387 180.27C201.151 180.27 200.299 179.382 200.227 177.99H204.619C204.643 177.834 204.667 177.606 204.667 177.366C204.667 175.506 203.731 174.306 202.075 174.306C200.563 174.306 199.135 175.626 199.135 177.738C199.135 179.886 200.527 181.146 202.255 181.146ZM200.215 177.21C200.347 175.926 201.163 175.182 202.087 175.182C203.107 175.182 203.707 175.89 203.707 177.21H200.215ZM206.272 180.99H207.364V176.262C208.024 175.602 208.48 175.266 209.152 175.266C210.016 175.266 210.388 175.782 210.388 177.006V180.99H211.48V176.862C211.48 175.194 210.856 174.306 209.488 174.306C208.6 174.306 207.928 174.798 207.304 175.41H207.268L207.172 174.474H206.272V180.99ZM215.828 181.146C216.608 181.146 217.292 180.726 217.808 180.222H217.832L217.94 180.99H218.828V171.438H217.736V173.946L217.796 175.074C217.22 174.594 216.728 174.306 215.96 174.306C214.472 174.306 213.14 175.626 213.14 177.738C213.14 179.91 214.196 181.146 215.828 181.146ZM216.068 180.234C214.916 180.234 214.268 179.298 214.268 177.726C214.268 176.238 215.096 175.23 216.152 175.23C216.692 175.23 217.184 175.422 217.736 175.914V179.334C217.196 179.934 216.668 180.234 216.068 180.234ZM223.113 181.146C224.673 181.146 225.933 180.21 225.933 178.638C225.933 177.438 225.105 176.646 224.061 176.406V176.358C224.997 176.01 225.633 175.302 225.633 174.234C225.633 172.818 224.553 172.026 223.077 172.026C222.057 172.026 221.277 172.47 220.617 173.082L221.205 173.778C221.697 173.286 222.321 172.926 223.029 172.902C223.941 172.926 224.517 173.466 224.517 174.318C224.517 175.266 223.893 175.998 222.081 175.998V176.838C224.109 176.838 224.817 177.546 224.817 178.602C224.817 179.61 224.073 180.234 223.029 180.234C222.033 180.234 221.361 179.766 220.845 179.226L220.293 179.946C220.869 180.57 221.733 181.146 223.113 181.146Z" fill="white" fill-opacity="0.6"/>
<path d="M127.584 11.2258H133.66V10.1198H128.886V6.38183H132.778V5.27583H128.886V2.05583H133.506V0.96383H127.584V11.2258ZM138.142 11.4078C139.052 11.4078 139.85 10.9178 140.452 10.3298H140.48L140.606 11.2258H141.642V0.0818292H140.368V3.00783L140.438 4.32383C139.766 3.76383 139.192 3.42783 138.296 3.42783C136.56 3.42783 135.006 4.96783 135.006 7.43183C135.006 9.96583 136.238 11.4078 138.142 11.4078ZM138.422 10.3438C137.078 10.3438 136.322 9.25183 136.322 7.41783C136.322 5.68183 137.288 4.50583 138.52 4.50583C139.15 4.50583 139.724 4.72983 140.368 5.30383V9.29383C139.738 9.99383 139.122 10.3438 138.422 10.3438ZM146.796 14.7258C149.148 14.7258 150.632 13.5078 150.632 12.0938C150.632 10.8478 149.75 10.2878 147.986 10.2878H146.502C145.48 10.2878 145.172 9.95183 145.172 9.46183C145.172 9.04183 145.382 8.78983 145.662 8.55183C145.998 8.71983 146.418 8.81783 146.796 8.81783C148.336 8.81783 149.568 7.79583 149.568 6.17183C149.568 5.51383 149.316 4.95383 148.952 4.60383H150.506V3.62383H147.86C147.594 3.52583 147.216 3.42783 146.796 3.42783C145.256 3.42783 143.94 4.47783 143.94 6.14383C143.94 7.05383 144.43 7.78183 144.934 8.18783V8.24383C144.542 8.52383 144.08 9.02783 144.08 9.65783C144.08 10.2598 144.374 10.6658 144.78 10.9038V10.9598C144.066 11.4218 143.646 12.0378 143.646 12.6818C143.646 13.9978 144.934 14.7258 146.796 14.7258ZM146.796 7.94983C145.914 7.94983 145.172 7.24983 145.172 6.14383C145.172 5.02383 145.9 4.36583 146.796 4.36583C147.692 4.36583 148.406 5.03783 148.406 6.14383C148.406 7.24983 147.664 7.94983 146.796 7.94983ZM146.978 13.8578C145.592 13.8578 144.766 13.3258 144.766 12.5138C144.766 12.0658 145.004 11.6178 145.55 11.2258C145.886 11.3098 146.25 11.3518 146.53 11.3518H147.846C148.854 11.3518 149.4 11.5898 149.4 12.2898C149.4 13.0878 148.434 13.8578 146.978 13.8578ZM154.984 11.4078C156.02 11.4078 156.832 11.0578 157.504 10.6238L157.042 9.78383C156.482 10.1618 155.88 10.3858 155.138 10.3858C153.696 10.3858 152.702 9.34983 152.618 7.72583H157.742C157.77 7.54383 157.798 7.27783 157.798 6.99783C157.798 4.82783 156.706 3.42783 154.774 3.42783C153.01 3.42783 151.344 4.96783 151.344 7.43183C151.344 9.93783 152.968 11.4078 154.984 11.4078ZM152.604 6.81583C152.758 5.31783 153.71 4.44983 154.788 4.44983C155.978 4.44983 156.678 5.27583 156.678 6.81583H152.604Z" fill="white" fill-opacity="0.6"/>
<path d="M217.926 79.8661C219.256 79.8661 220.264 79.3341 221.076 78.3961L220.362 77.5841C219.704 78.2981 218.962 78.7321 217.982 78.7321C216.022 78.7321 214.79 77.1081 214.79 74.5181C214.79 71.9561 216.078 70.3601 218.024 70.3601C218.906 70.3601 219.592 70.7661 220.124 71.3401L220.824 70.5001C220.236 69.8421 219.256 69.2261 218.01 69.2261C215.406 69.2261 213.46 71.2421 213.46 74.5601C213.46 77.8921 215.378 79.8661 217.926 79.8661ZM222.864 79.6841H224.138V74.1681C224.908 73.3981 225.44 73.0061 226.224 73.0061C227.232 73.0061 227.666 73.6081 227.666 75.0361V79.6841H228.94V74.8681C228.94 72.9221 228.212 71.8861 226.616 71.8861C225.58 71.8861 224.796 72.4601 224.096 73.1601L224.138 71.5921V68.5401H222.864V79.6841ZM231.368 79.6841H232.642V74.7981C233.146 73.4961 233.93 73.0481 234.56 73.0481C234.868 73.0481 235.05 73.0761 235.302 73.1741L235.54 72.0541C235.302 71.9281 235.064 71.8861 234.728 71.8861C233.874 71.8861 233.104 72.5021 232.572 73.4681H232.53L232.418 72.0821H231.368V79.6841ZM239.599 79.8661C241.461 79.8661 243.127 78.4101 243.127 75.8901C243.127 73.3561 241.461 71.8861 239.599 71.8861C237.737 71.8861 236.071 73.3561 236.071 75.8901C236.071 78.4101 237.737 79.8661 239.599 79.8661ZM239.599 78.8021C238.283 78.8021 237.401 77.6401 237.401 75.8901C237.401 74.1401 238.283 72.9501 239.599 72.9501C240.915 72.9501 241.811 74.1401 241.811 75.8901C241.811 77.6401 240.915 78.8021 239.599 78.8021ZM245.135 79.6841H246.409V74.1681C247.109 73.3841 247.753 73.0061 248.327 73.0061C249.293 73.0061 249.741 73.6081 249.741 75.0361V79.6841H251.015V74.1681C251.729 73.3841 252.345 73.0061 252.933 73.0061C253.899 73.0061 254.347 73.6081 254.347 75.0361V79.6841H255.621V74.8681C255.621 72.9221 254.879 71.8861 253.311 71.8861C252.387 71.8861 251.589 72.4881 250.805 73.3421C250.497 72.4461 249.867 71.8861 248.705 71.8861C247.795 71.8861 246.997 72.4601 246.339 73.1881H246.297L246.185 72.0821H245.135V79.6841ZM261.162 79.8661C262.198 79.8661 263.01 79.5161 263.682 79.0821L263.22 78.2421C262.66 78.6201 262.058 78.8441 261.316 78.8441C259.874 78.8441 258.88 77.8081 258.796 76.1841H263.92C263.948 76.0021 263.976 75.7361 263.976 75.4561C263.976 73.2861 262.884 71.8861 260.952 71.8861C259.188 71.8861 257.522 73.4261 257.522 75.8901C257.522 78.3961 259.146 79.8661 261.162 79.8661ZM258.782 75.2741C258.936 73.7761 259.888 72.9081 260.966 72.9081C262.156 72.9081 262.856 73.7341 262.856 75.2741H258.782Z" fill="white" fill-opacity="0.6"/>
<path d="M132.392 147.894C134.534 147.894 135.878 146.606 135.878 144.982C135.878 143.456 134.954 142.756 133.764 142.238L132.294 141.608C131.496 141.272 130.6 140.894 130.6 139.9C130.6 138.976 131.356 138.388 132.518 138.388C133.47 138.388 134.226 138.766 134.856 139.354L135.542 138.528C134.814 137.772 133.736 137.254 132.518 137.254C130.656 137.254 129.284 138.402 129.284 139.984C129.284 141.482 130.418 142.21 131.37 142.616L132.854 143.26C133.82 143.694 134.562 144.03 134.562 145.08C134.562 146.088 133.75 146.76 132.406 146.76C131.342 146.76 130.306 146.256 129.564 145.486L128.794 146.368C129.69 147.306 130.936 147.894 132.392 147.894ZM139.527 147.894C140.465 147.894 141.319 147.404 142.047 146.802H142.089L142.201 147.712H143.251V143.036C143.251 141.16 142.467 139.914 140.619 139.914C139.401 139.914 138.323 140.46 137.623 140.908L138.127 141.79C138.729 141.384 139.527 140.978 140.409 140.978C141.655 140.978 141.977 141.916 141.977 142.896C138.743 143.26 137.301 144.086 137.301 145.738C137.301 147.11 138.253 147.894 139.527 147.894ZM139.891 146.872C139.135 146.872 138.547 146.522 138.547 145.654C138.547 144.674 139.415 144.044 141.977 143.736V145.864C141.235 146.522 140.633 146.872 139.891 146.872ZM149.376 136.638C149.012 136.484 148.564 136.386 148.102 136.386C146.59 136.386 145.89 137.352 145.89 138.892V140.11L144.854 140.18V141.146H145.89V147.712H147.164V141.146H148.774V140.11H147.164V138.906C147.164 137.926 147.514 137.408 148.242 137.408C148.508 137.408 148.816 137.478 149.096 137.604L149.376 136.638ZM151.668 147.894C152.606 147.894 153.46 147.404 154.188 146.802H154.23L154.342 147.712H155.392V143.036C155.392 141.16 154.608 139.914 152.76 139.914C151.542 139.914 150.464 140.46 149.764 140.908L150.268 141.79C150.87 141.384 151.668 140.978 152.55 140.978C153.796 140.978 154.118 141.916 154.118 142.896C150.884 143.26 149.442 144.086 149.442 145.738C149.442 147.11 150.394 147.894 151.668 147.894ZM152.032 146.872C151.276 146.872 150.688 146.522 150.688 145.654C150.688 144.674 151.556 144.044 154.118 143.736V145.864C153.376 146.522 152.774 146.872 152.032 146.872ZM157.82 147.712H159.094V142.826C159.598 141.524 160.382 141.076 161.012 141.076C161.32 141.076 161.502 141.104 161.754 141.202L161.992 140.082C161.754 139.956 161.516 139.914 161.18 139.914C160.326 139.914 159.556 140.53 159.024 141.496H158.982L158.87 140.11H157.82V147.712ZM163.248 147.712H164.522V140.11H163.248V147.712ZM163.892 138.542C164.396 138.542 164.774 138.192 164.774 137.716C164.774 137.198 164.396 136.89 163.892 136.89C163.388 136.89 163.01 137.198 163.01 137.716C163.01 138.192 163.388 138.542 163.892 138.542Z" fill="white" fill-opacity="0.6"/>
<path d="M54.9714 79.6841H56.2734V75.0781H60.1934V73.9861H56.2734V70.5141H60.8934V69.4221H54.9714V79.6841ZM62.584 79.6841H63.858V72.0821H62.584V79.6841ZM63.228 70.5141C63.732 70.5141 64.11 70.1641 64.11 69.6881C64.11 69.1701 63.732 68.8621 63.228 68.8621C62.724 68.8621 62.346 69.1701 62.346 69.6881C62.346 70.1641 62.724 70.5141 63.228 70.5141ZM66.4395 79.6841H67.7135V74.7981C68.2175 73.4961 69.0015 73.0481 69.6315 73.0481C69.9395 73.0481 70.1215 73.0761 70.3735 73.1741L70.6115 72.0541C70.3735 71.9281 70.1355 71.8861 69.7995 71.8861C68.9455 71.8861 68.1755 72.5021 67.6435 73.4681H67.6015L67.4895 72.0821H66.4395V79.6841ZM74.7828 79.8661C75.8188 79.8661 76.6308 79.5161 77.3028 79.0821L76.8408 78.2421C76.2808 78.6201 75.6788 78.8441 74.9368 78.8441C73.4948 78.8441 72.5008 77.8081 72.4168 76.1841H77.5408C77.5688 76.0021 77.5968 75.7361 77.5968 75.4561C77.5968 73.2861 76.5048 71.8861 74.5728 71.8861C72.8088 71.8861 71.1428 73.4261 71.1428 75.8901C71.1428 78.3961 72.7668 79.8661 74.7828 79.8661ZM72.4028 75.2741C72.5568 73.7761 73.5088 72.9081 74.5868 72.9081C75.7768 72.9081 76.4768 73.7341 76.4768 75.2741H72.4028ZM83.1648 68.6101C82.8008 68.4561 82.3528 68.3581 81.8908 68.3581C80.3788 68.3581 79.6788 69.3241 79.6788 70.8641V72.0821L78.6428 72.1521V73.1181H79.6788V79.6841H80.9528V73.1181H82.5628V72.0821H80.9528V70.8781C80.9528 69.8981 81.3028 69.3801 82.0308 69.3801C82.2968 69.3801 82.6048 69.4501 82.8848 69.5761L83.1648 68.6101ZM86.8251 79.8661C88.6871 79.8661 90.3531 78.4101 90.3531 75.8901C90.3531 73.3561 88.6871 71.8861 86.8251 71.8861C84.9631 71.8861 83.2971 73.3561 83.2971 75.8901C83.2971 78.4101 84.9631 79.8661 86.8251 79.8661ZM86.8251 78.8021C85.5091 78.8021 84.6271 77.6401 84.6271 75.8901C84.6271 74.1401 85.5091 72.9501 86.8251 72.9501C88.1411 72.9501 89.0371 74.1401 89.0371 75.8901C89.0371 77.6401 88.1411 78.8021 86.8251 78.8021ZM91.0236 79.6841H92.3676L93.3896 77.9061C93.6556 77.4441 93.9076 76.9821 94.1736 76.5481H94.2436C94.5236 76.9821 94.8036 77.4441 95.0556 77.9061L96.1756 79.6841H97.5756L95.0696 75.8481L97.3796 72.0821H96.0496L95.1116 73.7621C94.8876 74.1821 94.6636 74.6021 94.4256 75.0221H94.3696C94.1176 74.6021 93.8516 74.1821 93.6136 73.7621L92.5916 72.0821H91.2196L93.5296 75.7221L91.0236 79.6841Z" fill="white" fill-opacity="0.6"/>
</svg>
