<svg width="309" height="174" viewBox="0 0 309 174" fill="none" xmlns="http://www.w3.org/2000/svg">
<path d="M154 4.98975L209.425 34.7397V94.2397L154 123.99L98.5742 94.2397V34.7397L154 4.98975Z" fill="white" fill-opacity="0.04"/>
<path d="M99.0742 35.0388L154 5.55722L208.925 35.0388V93.9407L154 123.422L99.0742 93.9406V35.0388Z" stroke="white" stroke-opacity="0.1"/>
<path d="M111.391 41.65L154 18.7794L196.609 41.65V87.3296L154 110.2L111.391 87.3295V41.65Z" stroke="white" stroke-opacity="0.1"/>
<path d="M123.708 48.2611L154 32.0017L184.292 48.2611V80.7184L154 96.9778L123.708 80.7184V48.2611Z" stroke="white" stroke-opacity="0.1"/>
<path d="M136.025 54.8722L154 45.2239L171.975 54.8722V74.1073L154 83.7556L136.025 74.1073V54.8722Z" stroke="white" stroke-opacity="0.1"/>
<path d="M159.658 61.4833L154 58.4461L148.342 61.4833V67.4962L154 70.5334L159.658 67.4962V61.4833Z" stroke="white" stroke-opacity="0.1"/>
<path d="M146.876 10.6599H148.178V6.58591H149.872C152.112 6.58591 153.652 5.57791 153.652 3.40791C153.652 1.16791 152.112 0.397912 149.802 0.397912H146.876V10.6599ZM148.178 5.53591V1.44791H149.648C151.454 1.44791 152.364 1.92391 152.364 3.40791C152.364 4.87791 151.51 5.53591 149.704 5.53591H148.178ZM158.427 10.8419C160.569 10.8419 161.913 9.55391 161.913 7.92991C161.913 6.40391 160.989 5.70391 159.799 5.18591L158.329 4.55591C157.531 4.21991 156.635 3.84191 156.635 2.84791C156.635 1.92391 157.391 1.33591 158.553 1.33591C159.505 1.33591 160.261 1.71391 160.891 2.30191L161.577 1.47591C160.849 0.719912 159.771 0.201912 158.553 0.201912C156.691 0.201912 155.319 1.34991 155.319 2.93191C155.319 4.42991 156.453 5.15791 157.405 5.56391L158.889 6.20791C159.855 6.64191 160.597 6.97791 160.597 8.02791C160.597 9.03591 159.785 9.70791 158.441 9.70791C157.377 9.70791 156.341 9.20391 155.599 8.43391L154.829 9.31591C155.725 10.2539 156.971 10.8419 158.427 10.8419Z" fill="white" fill-opacity="0.6"/>
<path d="M215.785 41.1962L216.289 39.6282C216.653 38.4662 216.989 37.3602 217.311 36.1562H217.367C217.703 37.3462 218.025 38.4662 218.403 39.6282L218.893 41.1962H215.785ZM220.195 45.3682H221.567L218.081 35.1062H216.639L213.153 45.3682H214.469L215.463 42.2322H219.215L220.195 45.3682ZM223.015 45.3682H224.317V35.1062H223.015V45.3682Z" fill="white" fill-opacity="0.6"/>
<path d="M73.8622 107.116C75.1922 107.116 76.2002 106.584 77.0122 105.646L76.2982 104.834C75.6402 105.548 74.8982 105.982 73.9182 105.982C71.9582 105.982 70.7262 104.358 70.7262 101.768C70.7262 99.2062 72.0142 97.6102 73.9602 97.6102C74.8422 97.6102 75.5282 98.0162 76.0602 98.5902L76.7602 97.7502C76.1722 97.0922 75.1922 96.4762 73.9462 96.4762C71.3422 96.4762 69.3962 98.4922 69.3962 101.81C69.3962 105.142 71.3142 107.116 73.8622 107.116ZM79.122 103.084L81.46 99.5842C81.754 99.0802 82.034 98.5762 82.286 98.0722H82.342C82.314 98.6042 82.258 99.4302 82.258 99.9342V103.084H79.122ZM84.834 103.084H83.476V96.6722H82.062L77.792 103.266V104.106H82.258V106.934H83.476V104.106H84.834V103.084ZM86.6776 106.934H89.3096C92.4036 106.934 94.0976 105.016 94.0976 101.768C94.0976 98.5062 92.4036 96.6722 89.2536 96.6722H86.6776V106.934ZM87.9796 105.87V97.7222H89.1416C91.5636 97.7222 92.7536 99.1642 92.7536 101.768C92.7536 104.358 91.5636 105.87 89.1416 105.87H87.9796Z" fill="white" fill-opacity="0.6"/>
<path d="M218.389 107.116C219.719 107.116 220.727 106.584 221.539 105.646L220.825 104.834C220.167 105.548 219.425 105.982 218.445 105.982C216.485 105.982 215.253 104.358 215.253 101.768C215.253 99.2062 216.541 97.6102 218.487 97.6102C219.369 97.6102 220.055 98.0162 220.587 98.5902L221.287 97.7502C220.699 97.0922 219.719 96.4762 218.473 96.4762C215.869 96.4762 213.923 98.4922 213.923 101.81C213.923 105.142 215.841 107.116 218.389 107.116ZM223.439 106.934H226.071C229.165 106.934 230.859 105.016 230.859 101.768C230.859 98.5062 229.165 96.6722 226.015 96.6722H223.439V106.934ZM224.741 105.87V97.7222H225.903C228.325 97.7222 229.515 99.1642 229.515 101.768C229.515 104.358 228.325 105.87 225.903 105.87H224.741ZM234.352 97.7222H236.074C237.684 97.7222 238.566 98.1982 238.566 99.5562C238.566 100.886 237.684 101.53 236.074 101.53H234.352V97.7222ZM240.162 106.934L237.53 102.44C238.93 102.104 239.854 101.152 239.854 99.5562C239.854 97.4142 238.356 96.6722 236.27 96.6722H233.05V106.934H234.352V102.58H236.2L238.692 106.934H240.162Z" fill="white" fill-opacity="0.6"/>
<path d="M80.8284 41.1962L81.3324 39.6282C81.6964 38.4662 82.0324 37.3602 82.3544 36.1562H82.4104C82.7464 37.3462 83.0684 38.4662 83.4464 39.6282L83.9364 41.1962H80.8284ZM85.2384 45.3682H86.6104L83.1244 35.1062H81.6824L78.1964 45.3682H79.5124L80.5064 42.2322H84.2584L85.2384 45.3682ZM88.0583 45.3682H94.1343V44.2622H89.3603V40.5242H93.2523V39.4182H89.3603V36.1982H93.9803V35.1062H88.0583V45.3682Z" fill="white" fill-opacity="0.6"/>
<path d="M145.42 141.643H146.778L148.262 138.871C148.528 138.367 148.794 137.835 149.088 137.219H149.144C149.48 137.835 149.76 138.367 150.026 138.871L151.538 141.643H152.966L149.97 136.407L152.77 131.381H151.412L150.04 133.999C149.788 134.475 149.592 134.909 149.312 135.497H149.256C148.92 134.909 148.71 134.475 148.444 133.999L147.044 131.381H145.616L148.416 136.337L145.42 141.643ZM154.607 141.643H157.239C160.333 141.643 162.027 139.725 162.027 136.477C162.027 133.215 160.333 131.381 157.183 131.381H154.607V141.643ZM155.909 140.579V132.431H157.071C159.493 132.431 160.683 133.873 160.683 136.477C160.683 139.067 159.493 140.579 157.071 140.579H155.909Z" fill="white" fill-opacity="0.6"/>
<path fill-rule="evenodd" clip-rule="evenodd" d="M9.32929 163.99H11.5C12.0523 163.99 12.5 164.437 12.5 164.99C12.5 165.542 12.0523 165.99 11.5 165.99H9.32929C8.91746 167.155 7.80622 167.99 6.5 167.99C5.19378 167.99 4.08254 167.155 3.67071 165.99H1.5C0.947715 165.99 0.5 165.542 0.5 164.99C0.5 164.437 0.947715 163.99 1.5 163.99H3.67071C4.08254 162.825 5.19378 161.99 6.5 161.99C7.80622 161.99 8.91746 162.825 9.32929 163.99Z" fill="#268AFF"/>
<path d="M22.756 170.146C23.044 170.146 23.236 170.11 23.392 170.05L23.236 169.21C23.116 169.234 23.068 169.234 23.008 169.234C22.84 169.234 22.696 169.102 22.696 168.766V160.438H21.604V168.694C21.604 169.618 21.94 170.146 22.756 170.146ZM27.6539 170.146C28.5419 170.146 29.2379 169.846 29.8139 169.474L29.4179 168.754C28.9379 169.078 28.4219 169.27 27.7859 169.27C26.5499 169.27 25.6979 168.382 25.6259 166.99H30.0179C30.0419 166.834 30.0659 166.606 30.0659 166.366C30.0659 164.506 29.1299 163.306 27.4739 163.306C25.9619 163.306 24.5339 164.626 24.5339 166.738C24.5339 168.886 25.9259 170.146 27.6539 170.146ZM25.6139 166.21C25.7459 164.926 26.5619 164.182 27.4859 164.182C28.5059 164.182 29.1059 164.89 29.1059 166.21H25.6139ZM33.7375 172.99C35.7535 172.99 37.0255 171.946 37.0255 170.734C37.0255 169.666 36.2695 169.186 34.7575 169.186H33.4855C32.6095 169.186 32.3455 168.898 32.3455 168.478C32.3455 168.118 32.5255 167.902 32.7655 167.698C33.0535 167.842 33.4135 167.926 33.7375 167.926C35.0575 167.926 36.1135 167.05 36.1135 165.658C36.1135 165.094 35.8975 164.614 35.5855 164.314H36.9175V163.474H34.6495C34.4215 163.39 34.0975 163.306 33.7375 163.306C32.4175 163.306 31.2895 164.206 31.2895 165.634C31.2895 166.414 31.7095 167.038 32.1415 167.386V167.434C31.8055 167.674 31.4095 168.106 31.4095 168.646C31.4095 169.162 31.6615 169.51 32.0095 169.714V169.762C31.3975 170.158 31.0375 170.686 31.0375 171.238C31.0375 172.366 32.1415 172.99 33.7375 172.99ZM33.7375 167.182C32.9815 167.182 32.3455 166.582 32.3455 165.634C32.3455 164.674 32.9695 164.11 33.7375 164.11C34.5055 164.11 35.1175 164.686 35.1175 165.634C35.1175 166.582 34.4815 167.182 33.7375 167.182ZM33.8935 172.246C32.7055 172.246 31.9975 171.79 31.9975 171.094C31.9975 170.71 32.2015 170.326 32.6695 169.99C32.9575 170.062 33.2695 170.098 33.5095 170.098H34.6375C35.5015 170.098 35.9695 170.302 35.9695 170.902C35.9695 171.586 35.1415 172.246 33.8935 172.246ZM40.7554 170.146C41.6434 170.146 42.3394 169.846 42.9154 169.474L42.5194 168.754C42.0394 169.078 41.5234 169.27 40.8874 169.27C39.6514 169.27 38.7994 168.382 38.7274 166.99H43.1194C43.1434 166.834 43.1674 166.606 43.1674 166.366C43.1674 164.506 42.2314 163.306 40.5754 163.306C39.0634 163.306 37.6354 164.626 37.6354 166.738C37.6354 168.886 39.0274 170.146 40.7554 170.146ZM38.7154 166.21C38.8474 164.926 39.6634 164.182 40.5874 164.182C41.6074 164.182 42.2074 164.89 42.2074 166.21H38.7154ZM44.772 169.99H45.864V165.262C46.524 164.602 46.98 164.266 47.652 164.266C48.516 164.266 48.888 164.782 48.888 166.006V169.99H49.98V165.862C49.98 164.194 49.356 163.306 47.988 163.306C47.1 163.306 46.428 163.798 45.804 164.41H45.768L45.672 163.474H44.772V169.99ZM54.3279 170.146C55.1079 170.146 55.7919 169.726 56.3079 169.222H56.3319L56.4399 169.99H57.3279V160.438H56.2359V162.946L56.2959 164.074C55.7199 163.594 55.2279 163.306 54.4599 163.306C52.9719 163.306 51.6399 164.626 51.6399 166.738C51.6399 168.91 52.6959 170.146 54.3279 170.146ZM54.5679 169.234C53.4159 169.234 52.7679 168.298 52.7679 166.726C52.7679 165.238 53.5959 164.23 54.6519 164.23C55.1919 164.23 55.6839 164.422 56.2359 164.914V168.334C55.6959 168.934 55.1679 169.234 54.5679 169.234ZM59.5013 169.99H64.3253V169.078H62.5613V161.194H61.7213C61.2413 161.47 60.6773 161.674 59.8973 161.818V162.514H61.4573V169.078H59.5013V169.99Z" fill="white" fill-opacity="0.6"/>
<path fill-rule="evenodd" clip-rule="evenodd" d="M90.3293 163.99H92.5C93.0523 163.99 93.5 164.437 93.5 164.99C93.5 165.542 93.0523 165.99 92.5 165.99H90.3293C89.9175 167.155 88.8062 167.99 87.5 167.99C86.1938 167.99 85.0825 167.155 84.6707 165.99H82.5C81.9477 165.99 81.5 165.542 81.5 164.99C81.5 164.437 81.9477 163.99 82.5 163.99H84.6707C85.0825 162.825 86.1938 161.99 87.5 161.99C88.8062 161.99 89.9175 162.825 90.3293 163.99Z" fill="#3DFFDC"/>
<path d="M103.756 170.146C104.044 170.146 104.236 170.11 104.392 170.05L104.236 169.21C104.116 169.234 104.068 169.234 104.008 169.234C103.84 169.234 103.696 169.102 103.696 168.766V160.438H102.604V168.694C102.604 169.618 102.94 170.146 103.756 170.146ZM108.654 170.146C109.542 170.146 110.238 169.846 110.814 169.474L110.418 168.754C109.938 169.078 109.422 169.27 108.786 169.27C107.55 169.27 106.698 168.382 106.626 166.99H111.018C111.042 166.834 111.066 166.606 111.066 166.366C111.066 164.506 110.13 163.306 108.474 163.306C106.962 163.306 105.534 164.626 105.534 166.738C105.534 168.886 106.926 170.146 108.654 170.146ZM106.614 166.21C106.746 164.926 107.562 164.182 108.486 164.182C109.506 164.182 110.106 164.89 110.106 166.21H106.614ZM114.738 172.99C116.754 172.99 118.026 171.946 118.026 170.734C118.026 169.666 117.27 169.186 115.758 169.186H114.486C113.61 169.186 113.346 168.898 113.346 168.478C113.346 168.118 113.526 167.902 113.766 167.698C114.054 167.842 114.414 167.926 114.738 167.926C116.058 167.926 117.114 167.05 117.114 165.658C117.114 165.094 116.898 164.614 116.586 164.314H117.918V163.474H115.65C115.422 163.39 115.098 163.306 114.738 163.306C113.418 163.306 112.29 164.206 112.29 165.634C112.29 166.414 112.71 167.038 113.142 167.386V167.434C112.806 167.674 112.41 168.106 112.41 168.646C112.41 169.162 112.662 169.51 113.01 169.714V169.762C112.398 170.158 112.038 170.686 112.038 171.238C112.038 172.366 113.142 172.99 114.738 172.99ZM114.738 167.182C113.982 167.182 113.346 166.582 113.346 165.634C113.346 164.674 113.97 164.11 114.738 164.11C115.506 164.11 116.118 164.686 116.118 165.634C116.118 166.582 115.482 167.182 114.738 167.182ZM114.894 172.246C113.706 172.246 112.998 171.79 112.998 171.094C112.998 170.71 113.201 170.326 113.67 169.99C113.958 170.062 114.27 170.098 114.51 170.098H115.638C116.502 170.098 116.97 170.302 116.97 170.902C116.97 171.586 116.142 172.246 114.894 172.246ZM121.755 170.146C122.643 170.146 123.339 169.846 123.915 169.474L123.519 168.754C123.039 169.078 122.523 169.27 121.887 169.27C120.651 169.27 119.799 168.382 119.727 166.99H124.119C124.143 166.834 124.167 166.606 124.167 166.366C124.167 164.506 123.231 163.306 121.575 163.306C120.063 163.306 118.635 164.626 118.635 166.738C118.635 168.886 120.027 170.146 121.755 170.146ZM119.715 166.21C119.847 164.926 120.663 164.182 121.587 164.182C122.607 164.182 123.207 164.89 123.207 166.21H119.715ZM125.772 169.99H126.864V165.262C127.524 164.602 127.98 164.266 128.652 164.266C129.516 164.266 129.888 164.782 129.888 166.006V169.99H130.98V165.862C130.98 164.194 130.356 163.306 128.988 163.306C128.1 163.306 127.428 163.798 126.804 164.41H126.768L126.672 163.474H125.772V169.99ZM135.328 170.146C136.108 170.146 136.792 169.726 137.308 169.222H137.332L137.44 169.99H138.328V160.438H137.236V162.946L137.296 164.074C136.72 163.594 136.228 163.306 135.46 163.306C133.972 163.306 132.64 164.626 132.64 166.738C132.64 168.91 133.696 170.146 135.328 170.146ZM135.568 169.234C134.416 169.234 133.768 168.298 133.768 166.726C133.768 165.238 134.596 164.23 135.652 164.23C136.192 164.23 136.684 164.422 137.236 164.914V168.334C136.696 168.934 136.168 169.234 135.568 169.234ZM139.973 169.99H145.505V169.042H143.069C142.625 169.042 142.085 169.09 141.629 169.126C143.693 167.17 145.073 165.382 145.073 163.63C145.073 162.058 144.089 161.026 142.517 161.026C141.401 161.026 140.645 161.542 139.925 162.322L140.561 162.946C141.041 162.37 141.665 161.926 142.385 161.926C143.477 161.926 144.005 162.658 144.005 163.666C144.005 165.178 142.733 166.93 139.973 169.342V169.99Z" fill="white" fill-opacity="0.6"/>
<path fill-rule="evenodd" clip-rule="evenodd" d="M171.329 163.99H173.5C174.052 163.99 174.5 164.437 174.5 164.99C174.5 165.542 174.052 165.99 173.5 165.99H171.329C170.917 167.155 169.806 167.99 168.5 167.99C167.194 167.99 166.083 167.155 165.671 165.99H163.5C162.948 165.99 162.5 165.542 162.5 164.99C162.5 164.437 162.948 163.99 163.5 163.99H165.671C166.083 162.825 167.194 161.99 168.5 161.99C169.806 161.99 170.917 162.825 171.329 163.99Z" fill="#36F097"/>
<path d="M184.756 170.146C185.044 170.146 185.236 170.11 185.392 170.05L185.236 169.21C185.116 169.234 185.068 169.234 185.008 169.234C184.84 169.234 184.696 169.102 184.696 168.766V160.438H183.604V168.694C183.604 169.618 183.94 170.146 184.756 170.146ZM189.654 170.146C190.542 170.146 191.238 169.846 191.814 169.474L191.418 168.754C190.938 169.078 190.422 169.27 189.786 169.27C188.55 169.27 187.698 168.382 187.626 166.99H192.018C192.042 166.834 192.066 166.606 192.066 166.366C192.066 164.506 191.13 163.306 189.474 163.306C187.962 163.306 186.534 164.626 186.534 166.738C186.534 168.886 187.926 170.146 189.654 170.146ZM187.614 166.21C187.746 164.926 188.562 164.182 189.486 164.182C190.506 164.182 191.106 164.89 191.106 166.21H187.614ZM195.738 172.99C197.754 172.99 199.026 171.946 199.026 170.734C199.026 169.666 198.27 169.186 196.758 169.186H195.486C194.61 169.186 194.346 168.898 194.346 168.478C194.346 168.118 194.526 167.902 194.766 167.698C195.054 167.842 195.414 167.926 195.738 167.926C197.058 167.926 198.114 167.05 198.114 165.658C198.114 165.094 197.898 164.614 197.586 164.314H198.918V163.474H196.65C196.422 163.39 196.098 163.306 195.738 163.306C194.418 163.306 193.29 164.206 193.29 165.634C193.29 166.414 193.71 167.038 194.142 167.386V167.434C193.806 167.674 193.41 168.106 193.41 168.646C193.41 169.162 193.662 169.51 194.01 169.714V169.762C193.398 170.158 193.038 170.686 193.038 171.238C193.038 172.366 194.142 172.99 195.738 172.99ZM195.738 167.182C194.982 167.182 194.346 166.582 194.346 165.634C194.346 164.674 194.97 164.11 195.738 164.11C196.506 164.11 197.118 164.686 197.118 165.634C197.118 166.582 196.482 167.182 195.738 167.182ZM195.894 172.246C194.706 172.246 193.998 171.79 193.998 171.094C193.998 170.71 194.201 170.326 194.67 169.99C194.958 170.062 195.27 170.098 195.51 170.098H196.638C197.502 170.098 197.97 170.302 197.97 170.902C197.97 171.586 197.142 172.246 195.894 172.246ZM202.755 170.146C203.643 170.146 204.339 169.846 204.915 169.474L204.519 168.754C204.039 169.078 203.523 169.27 202.887 169.27C201.651 169.27 200.799 168.382 200.727 166.99H205.119C205.143 166.834 205.167 166.606 205.167 166.366C205.167 164.506 204.231 163.306 202.575 163.306C201.063 163.306 199.635 164.626 199.635 166.738C199.635 168.886 201.027 170.146 202.755 170.146ZM200.715 166.21C200.847 164.926 201.663 164.182 202.587 164.182C203.607 164.182 204.207 164.89 204.207 166.21H200.715ZM206.772 169.99H207.864V165.262C208.524 164.602 208.98 164.266 209.652 164.266C210.516 164.266 210.888 164.782 210.888 166.006V169.99H211.98V165.862C211.98 164.194 211.356 163.306 209.988 163.306C209.1 163.306 208.428 163.798 207.804 164.41H207.768L207.672 163.474H206.772V169.99ZM216.328 170.146C217.108 170.146 217.792 169.726 218.308 169.222H218.332L218.44 169.99H219.328V160.438H218.236V162.946L218.296 164.074C217.72 163.594 217.228 163.306 216.46 163.306C214.972 163.306 213.64 164.626 213.64 166.738C213.64 168.91 214.696 170.146 216.328 170.146ZM216.568 169.234C215.416 169.234 214.768 168.298 214.768 166.726C214.768 165.238 215.596 164.23 216.652 164.23C217.192 164.23 217.684 164.422 218.236 164.914V168.334C217.696 168.934 217.168 169.234 216.568 169.234ZM223.613 170.146C225.173 170.146 226.433 169.21 226.433 167.638C226.433 166.438 225.605 165.646 224.561 165.406V165.358C225.497 165.01 226.133 164.302 226.133 163.234C226.133 161.818 225.053 161.026 223.577 161.026C222.557 161.026 221.777 161.47 221.117 162.082L221.705 162.778C222.197 162.286 222.821 161.926 223.529 161.902C224.441 161.926 225.017 162.466 225.017 163.318C225.017 164.266 224.393 164.998 222.581 164.998V165.838C224.609 165.838 225.317 166.546 225.317 167.602C225.317 168.61 224.573 169.234 223.529 169.234C222.533 169.234 221.861 168.766 221.345 168.226L220.793 168.946C221.369 169.57 222.233 170.146 223.613 170.146Z" fill="white" fill-opacity="0.6"/>
<path fill-rule="evenodd" clip-rule="evenodd" d="M252.329 163.99H254.5C255.052 163.99 255.5 164.437 255.5 164.99C255.5 165.542 255.052 165.99 254.5 165.99H252.329C251.917 167.155 250.806 167.99 249.5 167.99C248.194 167.99 247.083 167.155 246.671 165.99H244.5C243.948 165.99 243.5 165.542 243.5 164.99C243.5 164.437 243.948 163.99 244.5 163.99H246.671C247.083 162.825 248.194 161.99 249.5 161.99C250.806 161.99 251.917 162.825 252.329 163.99Z" fill="#ADE1FF"/>
<path d="M265.756 170.146C266.044 170.146 266.236 170.11 266.392 170.05L266.236 169.21C266.116 169.234 266.068 169.234 266.008 169.234C265.84 169.234 265.696 169.102 265.696 168.766V160.438H264.604V168.694C264.604 169.618 264.94 170.146 265.756 170.146ZM270.654 170.146C271.542 170.146 272.238 169.846 272.814 169.474L272.418 168.754C271.938 169.078 271.422 169.27 270.786 169.27C269.55 169.27 268.698 168.382 268.626 166.99H273.018C273.042 166.834 273.066 166.606 273.066 166.366C273.066 164.506 272.13 163.306 270.474 163.306C268.962 163.306 267.534 164.626 267.534 166.738C267.534 168.886 268.926 170.146 270.654 170.146ZM268.614 166.21C268.746 164.926 269.562 164.182 270.486 164.182C271.506 164.182 272.106 164.89 272.106 166.21H268.614ZM276.738 172.99C278.754 172.99 280.026 171.946 280.026 170.734C280.026 169.666 279.27 169.186 277.758 169.186H276.486C275.61 169.186 275.346 168.898 275.346 168.478C275.346 168.118 275.526 167.902 275.766 167.698C276.054 167.842 276.414 167.926 276.738 167.926C278.058 167.926 279.114 167.05 279.114 165.658C279.114 165.094 278.898 164.614 278.586 164.314H279.918V163.474H277.65C277.422 163.39 277.098 163.306 276.738 163.306C275.418 163.306 274.29 164.206 274.29 165.634C274.29 166.414 274.71 167.038 275.142 167.386V167.434C274.806 167.674 274.41 168.106 274.41 168.646C274.41 169.162 274.662 169.51 275.01 169.714V169.762C274.398 170.158 274.038 170.686 274.038 171.238C274.038 172.366 275.142 172.99 276.738 172.99ZM276.738 167.182C275.982 167.182 275.346 166.582 275.346 165.634C275.346 164.674 275.97 164.11 276.738 164.11C277.506 164.11 278.118 164.686 278.118 165.634C278.118 166.582 277.482 167.182 276.738 167.182ZM276.894 172.246C275.706 172.246 274.998 171.79 274.998 171.094C274.998 170.71 275.201 170.326 275.67 169.99C275.958 170.062 276.27 170.098 276.51 170.098H277.638C278.502 170.098 278.97 170.302 278.97 170.902C278.97 171.586 278.142 172.246 276.894 172.246ZM283.755 170.146C284.643 170.146 285.339 169.846 285.915 169.474L285.519 168.754C285.039 169.078 284.523 169.27 283.887 169.27C282.651 169.27 281.799 168.382 281.727 166.99H286.119C286.143 166.834 286.167 166.606 286.167 166.366C286.167 164.506 285.231 163.306 283.575 163.306C282.063 163.306 280.635 164.626 280.635 166.738C280.635 168.886 282.027 170.146 283.755 170.146ZM281.715 166.21C281.847 164.926 282.663 164.182 283.587 164.182C284.607 164.182 285.207 164.89 285.207 166.21H281.715ZM287.772 169.99H288.864V165.262C289.524 164.602 289.98 164.266 290.652 164.266C291.516 164.266 291.888 164.782 291.888 166.006V169.99H292.98V165.862C292.98 164.194 292.356 163.306 290.988 163.306C290.1 163.306 289.428 163.798 288.804 164.41H288.768L288.672 163.474H287.772V169.99ZM297.328 170.146C298.108 170.146 298.792 169.726 299.308 169.222H299.332L299.44 169.99H300.328V160.438H299.236V162.946L299.296 164.074C298.72 163.594 298.228 163.306 297.46 163.306C295.972 163.306 294.64 164.626 294.64 166.738C294.64 168.91 295.696 170.146 297.328 170.146ZM297.568 169.234C296.416 169.234 295.768 168.298 295.768 166.726C295.768 165.238 296.596 164.23 297.652 164.23C298.192 164.23 298.684 164.422 299.236 164.914V168.334C298.696 168.934 298.168 169.234 297.568 169.234ZM302.825 166.69L304.829 163.69C305.081 163.258 305.321 162.826 305.537 162.394H305.585C305.561 162.85 305.513 163.558 305.513 163.99V166.69H302.825ZM307.721 166.69H306.557V161.194H305.345L301.685 166.846V167.566H305.513V169.99H306.557V167.566H307.721V166.69Z" fill="white" fill-opacity="0.6"/>
<path d="M154 9.94812L105.556 38.4585L124.667 80.1912L154 108.702L180.222 78.5384L181.556 49.6148L154 9.94812Z" stroke="#268AFF" stroke-width="2" stroke-linejoin="round"/>
<ellipse cx="124.667" cy="80.1911" rx="0.888889" ry="0.826389" fill="#268AFF"/>
<ellipse cx="154" cy="108.702" rx="0.888889" ry="0.826389" fill="#268AFF"/>
<ellipse cx="180.222" cy="78.5384" rx="0.888889" ry="0.826389" fill="#268AFF"/>
<ellipse cx="181.556" cy="49.6148" rx="0.888889" ry="0.826389" fill="#268AFF"/>
<ellipse cx="154" cy="9.94809" rx="0.888889" ry="0.826389" fill="#268AFF"/>
<ellipse cx="105.556" cy="38.4585" rx="0.888889" ry="0.826389" fill="#268AFF"/>
<path d="M154 23.5836L122.445 47.5488L142.445 70.6877L154 102.09L200.445 89.4881L185.556 47.5488L154 23.5836Z" stroke="#00CCFF" stroke-width="2" stroke-linejoin="round"/>
<ellipse cx="142.445" cy="70.6877" rx="0.888889" ry="0.826389" fill="#36F097"/>
<ellipse cx="154" cy="102.09" rx="0.888889" ry="0.826389" fill="#36F097"/>
<ellipse cx="200.222" cy="89.2815" rx="0.888889" ry="0.826389" fill="#36F097"/>
<ellipse cx="185.556" cy="47.5488" rx="0.888889" ry="0.826389" fill="#36F097"/>
<ellipse cx="154" cy="23.5835" rx="0.888889" ry="0.826389" fill="#36F097"/>
<ellipse cx="122.445" cy="47.5488" rx="0.888889" ry="0.826389" fill="#36F097"/>
<path d="M154 16.9724L138 55.8127L104.667 90.9342L154 93.8266L193.111 85.5627L158 62.4238L154 16.9724Z" stroke="#ADE1FF" stroke-width="2" stroke-linejoin="round"/>
<ellipse cx="104.667" cy="90.9342" rx="0.888889" ry="0.826389" fill="#ADE1FF"/>
<ellipse cx="154" cy="93.8266" rx="0.888889" ry="0.826389" fill="#ADE1FF"/>
<ellipse cx="193.111" cy="85.5627" rx="0.888889" ry="0.826389" fill="#ADE1FF"/>
<ellipse cx="158" cy="62.4238" rx="0.888889" ry="0.826389" fill="#ADE1FF"/>
<ellipse cx="154" cy="16.9724" rx="0.888889" ry="0.826389" fill="#ADE1FF"/>
<ellipse cx="138" cy="55.8127" rx="0.888889" ry="0.826389" fill="#ADE1FF"/>
<path d="M176.222 52.5071L154 27.7155L143.333 58.705L130 77.2988L154 80.1911L162.444 69.0349L176.222 52.5071Z" stroke="#00CCFF" stroke-width="2" stroke-linejoin="round"/>
<ellipse cx="130" cy="77.2987" rx="0.888889" ry="0.826389" fill="#3DFFDC"/>
<ellipse cx="154" cy="80.1911" rx="0.888889" ry="0.826389" fill="#3DFFDC"/>
<ellipse cx="162.444" cy="69.0349" rx="0.888889" ry="0.826389" fill="#3DFFDC"/>
<ellipse cx="176.222" cy="52.5071" rx="0.888889" ry="0.826389" fill="#3DFFDC"/>
<ellipse cx="154" cy="27.7154" rx="0.888889" ry="0.826389" fill="#3DFFDC"/>
<ellipse cx="143.333" cy="58.705" rx="0.888889" ry="0.826389" fill="#3DFFDC"/>
</svg>
