<svg width="56" height="55" viewBox="0 0 56 55" fill="none" xmlns="http://www.w3.org/2000/svg">
<rect width="55.1473" height="55" fill="black"/>
<path d="M35.6892 26.5642C38.3242 30.4858 39.6255 34.9092 39.1391 40.0016C39.137 40.0231 39.126 40.0429 39.1085 40.0559C37.113 41.539 35.1797 42.4391 33.2735 43.0361C33.2587 43.0406 33.2428 43.0404 33.2281 43.0353C33.2134 43.0303 33.2006 43.0208 33.1916 43.008C32.7512 42.3878 32.3511 41.7339 32.0005 41.0472C31.9804 41.0068 31.9988 40.9581 32.0402 40.9421C32.6757 40.6998 33.2799 40.4093 33.8612 40.0654C33.907 40.0382 33.9099 39.9718 33.8676 39.9399C33.7442 39.8472 33.622 39.7498 33.5051 39.6524C33.4832 39.6344 33.4538 39.6308 33.429 39.6429C29.6554 41.4068 25.5216 41.4068 21.7034 39.6429C21.6786 39.6317 21.6492 39.6355 21.6279 39.6532C21.5112 39.7507 21.3887 39.8472 21.2665 39.9399C21.2243 39.9718 21.2278 40.0382 21.2738 40.0654C21.8551 40.4028 22.4594 40.6998 23.094 40.9433C23.1351 40.9593 23.1546 41.0068 23.1342 41.0472C22.7913 41.7348 22.3911 42.3887 21.9426 43.0089C21.923 43.034 21.891 43.0455 21.8606 43.0361C19.9635 42.4391 18.0302 41.539 16.0347 40.0559C16.0181 40.0429 16.0062 40.0223 16.0044 40.0007C15.5979 35.5959 16.4264 31.1359 19.4511 26.5634C19.4583 26.5512 19.4694 26.5418 19.4823 26.5362C20.9705 25.8448 22.5649 25.3362 24.2314 25.0457C24.2617 25.041 24.2921 25.0551 24.3078 25.0823C24.5137 25.4513 24.7491 25.9245 24.9083 26.3112C26.6649 26.0396 28.4489 26.0396 30.2422 26.3112C30.4014 25.9328 30.6286 25.4513 30.8336 25.0823C30.8409 25.0688 30.8523 25.058 30.866 25.0514C30.8797 25.0449 30.8951 25.0429 30.91 25.0457C32.5774 25.3371 34.1718 25.8457 35.6589 26.5362C35.672 26.5418 35.6828 26.5512 35.6892 26.5642ZM25.8013 34.9393C25.8197 33.6372 24.8818 32.5597 23.7044 32.5597C22.5367 32.5597 21.6078 33.6277 21.6078 34.9393C21.6078 36.2507 22.555 37.3187 23.7044 37.3187C24.8724 37.3187 25.8013 36.2507 25.8013 34.9393ZM33.5538 34.9393C33.5722 33.6372 32.6342 32.5597 31.4572 32.5597C30.2891 32.5597 29.3603 33.6277 29.3603 34.9393C29.3603 36.2507 30.3075 37.3187 31.4572 37.3187C32.6342 37.3187 33.5538 36.2507 33.5538 34.9393Z" fill="#00CCFF"/>
</svg>
