<svg width="56" height="55" viewBox="0 0 56 55" fill="none" xmlns="http://www.w3.org/2000/svg">
<rect width="55.1317" height="55" fill="black"/>
<path fill-rule="evenodd" clip-rule="evenodd" d="M27.8313 20.8098C20.3627 20.8098 14.3135 26.7593 14.3135 34.1047C14.3135 39.9877 18.183 44.9567 23.5563 46.7183C24.2322 46.8346 24.4857 46.4357 24.4857 46.0867C24.4857 45.771 24.4688 44.724 24.4688 43.6106C21.0724 44.2255 20.1938 42.7963 19.9234 42.0484C19.7713 41.6662 19.1123 40.4863 18.5378 40.1705C18.0647 39.9212 17.3888 39.3063 18.5209 39.2897C19.5854 39.2731 20.3458 40.2536 20.5993 40.6525C21.8159 42.6633 23.7591 42.0983 24.5364 41.7493C24.6546 40.8851 25.0095 40.3035 25.3981 39.9711C22.3904 39.6387 19.2475 38.492 19.2475 33.4067C19.2475 31.9609 19.7713 30.7644 20.6331 29.8337C20.4979 29.5014 20.0248 28.1386 20.7683 26.3106C20.7683 26.3106 21.9004 25.9616 24.4857 27.6733C25.5671 27.3742 26.7161 27.2246 27.8651 27.2246C29.0142 27.2246 30.1632 27.3742 31.2446 27.6733C33.8299 25.945 34.962 26.3106 34.962 26.3106C35.7055 28.1386 35.2324 29.5014 35.0972 29.8337C35.959 30.7644 36.4828 31.9443 36.4828 33.4067C36.4828 38.5087 33.323 39.6387 30.3153 39.9711C30.8053 40.3866 31.2277 41.1843 31.2277 42.4307C31.2277 44.2088 31.2108 45.638 31.2108 46.0867C31.2108 46.4357 31.4643 46.8512 32.1402 46.7183C37.4797 44.9567 41.3492 39.9711 41.3492 34.1047C41.3492 26.7593 35.3 20.8098 27.8313 20.8098Z" fill="#00CCFF"/>
</svg>
