<svg width="272" height="71" viewBox="0 0 272 71" fill="none" xmlns="http://www.w3.org/2000/svg">
<path d="M78.7003 70.8327H21.6886C20.1515 70.8327 18.9038 69.5957 18.9038 68.0718V3.13394C18.9038 1.61004 20.1515 0.373047 21.6886 0.373047H78.49C79.3801 0.373047 80.2183 0.795302 80.7424 1.50989L104.741 34.2265C105.453 35.1955 105.451 36.511 104.735 37.48L80.9445 69.704C80.4203 70.4132 79.5876 70.8327 78.7003 70.8327ZM84.4009 34.2265L69.8654 15.8476C69.3385 15.1682 68.5221 14.7703 67.6567 14.7703H2.78479C1.24769 14.7703 0 16.0073 0 17.5312V52.351C0 53.8749 1.24769 55.1118 2.78479 55.1118H68.8252C69.7207 55.1118 70.5589 54.6869 71.0831 53.9669L84.45 37.526C85.1708 36.5326 85.149 35.1928 84.4009 34.2265Z" fill="#00CCFF"/>
<path d="M143.681 0.0698242H152.271C153.207 0.0698242 154.081 0.535387 154.597 1.31223L195.413 56.3298C195.713 56.7791 195.872 57.307 195.872 57.8483V68.0717C195.872 69.5956 194.624 70.8326 193.087 70.8326H183.815C182.827 70.8326 181.915 70.3129 181.415 69.4711L150.335 24.2087C149.27 22.4087 146.652 22.3871 145.557 24.1708L114.023 69.5063C113.518 70.3292 112.617 70.8326 111.645 70.8326H103.441C101.904 70.8326 100.656 69.5956 100.656 68.0717V57.8483C100.656 57.3097 100.815 56.7818 101.115 56.3298L141.358 1.31223C141.871 0.538094 142.745 0.0698242 143.681 0.0698242Z" fill="#00CCFF"/>
<path d="M269.614 31.6794L224.558 26.9101C223.19 26.7125 222.177 25.5486 222.177 24.179V17.8614C222.177 16.3375 223.425 15.1005 224.962 15.1005H268.683C270.269 15.1005 271.555 13.8256 271.555 12.253V7.94927C271.555 7.19408 271.252 6.46867 270.714 5.93544L265.944 1.20673C265.407 0.673497 264.675 0.373047 263.913 0.373047H205.747C204.21 0.373047 202.962 1.61004 202.962 3.13394V34.3835C202.962 35.7504 203.972 36.9116 205.337 37.1146L256.099 44.5798C257.464 44.7801 258.475 45.9413 258.475 47.311V52.8869C258.475 54.4108 257.227 55.6478 255.69 55.6478H205.195H205.138C204.556 55.6478 204.016 55.8264 203.568 56.1296C202.754 56.6574 202.216 57.5669 202.216 58.6036V63.0724C202.216 63.3756 202.266 63.676 202.356 63.9602C202.498 64.4096 202.749 64.8237 203.09 65.162L208.04 70.0694C208.417 70.4429 208.889 70.7055 209.397 70.8354C209.64 70.8977 209.891 70.9356 210.148 70.9356L210.115 70.8354H269.215C270.752 70.8354 272 69.5984 272 68.0745V34.4105C271.995 33.0409 270.982 31.877 269.614 31.6794Z" fill="#00CCFF"/>
</svg>
