<svg width="278" height="75" viewBox="0 0 278 75" fill="none" xmlns="http://www.w3.org/2000/svg">
<path d="M80.4363 74.6803H22.167C20.596 74.6803 19.3208 73.3761 19.3208 71.7693V3.30066C19.3208 1.69389 20.596 0.389648 22.167 0.389648H80.2214C81.1311 0.389648 81.9878 0.834862 82.5235 1.5883L107.051 36.0838C107.78 37.1055 107.777 38.4925 107.046 39.5142L82.73 73.4902C82.1943 74.238 81.3432 74.6803 80.4363 74.6803ZM86.2627 36.0838L71.4065 16.7056C70.868 15.9892 70.0337 15.5697 69.1491 15.5697H2.84622C1.27522 15.5697 0 16.874 0 18.4807V55.1937C0 56.8005 1.27522 58.1047 2.84622 58.1047H70.3434C71.2587 58.1047 72.1153 57.6566 72.6511 56.8975L86.3129 39.5627C87.0496 38.5153 87.0273 37.1026 86.2627 36.0838Z" fill="white"/>
<path d="M146.851 0.0698242H155.629C156.587 0.0698242 157.479 0.560701 158.007 1.37978L199.723 59.3888C200.03 59.8625 200.192 60.4191 200.192 60.9898V71.7691C200.192 73.3759 198.917 74.6802 197.346 74.6802H187.87C186.86 74.6802 185.928 74.1322 185.417 73.2446L153.651 25.5212C152.563 23.6233 149.887 23.6005 148.768 25.4812L116.539 73.2817C116.022 74.1493 115.102 74.6802 114.108 74.6802H105.723C104.152 74.6802 102.877 73.3759 102.877 71.7691V60.9898C102.877 60.4219 103.039 59.8654 103.346 59.3888L144.476 1.37978C145.001 0.563554 145.894 0.0698242 146.851 0.0698242Z" fill="white"/>
<path d="M275.561 33.3977L229.511 28.3691C228.113 28.1608 227.078 26.9336 227.078 25.4895V18.8284C227.078 17.2216 228.353 15.9174 229.924 15.9174H274.61C276.231 15.9174 277.545 14.5732 277.545 12.9151V8.37732C277.545 7.58107 277.235 6.81621 276.686 6.25399L271.811 1.26817C271.261 0.705947 270.513 0.38916 269.735 0.38916H210.285C208.714 0.38916 207.439 1.69341 207.439 3.30017V36.2488C207.439 37.69 208.471 38.9144 209.867 39.1284L261.749 46.9996C263.144 47.2108 264.176 48.4351 264.176 49.8792V55.7583C264.176 57.3651 262.901 58.6693 261.33 58.6693H209.722H209.663C209.069 58.6693 208.516 58.8577 208.058 59.1773C207.227 59.7338 206.677 60.6927 206.677 61.7858V66.4976C206.677 66.8173 206.727 67.1341 206.82 67.4337C206.965 67.9075 207.221 68.3441 207.57 68.7009L212.629 73.875C213.014 74.2689 213.497 74.5457 214.016 74.6827C214.264 74.7484 214.521 74.7883 214.783 74.7883L214.75 74.6827H275.154C276.725 74.6827 278 73.3785 278 71.7717V36.2774C277.994 34.8333 276.959 33.6061 275.561 33.3977Z" fill="white"/>
</svg>
