<svg width="55" height="55" viewBox="0 0 55 55" fill="none" xmlns="http://www.w3.org/2000/svg">
<rect width="55" height="55" fill="black"/>
<path d="M12.6066 32.8481C12.6066 32.8481 24.1962 28.153 28.2156 26.4997C29.7565 25.8384 34.9819 23.7222 34.9819 23.7222C34.9819 23.7222 37.3936 22.7965 37.1926 25.0448C37.1256 25.9707 36.5897 29.211 36.0538 32.7158C35.2498 37.6755 34.3789 43.0981 34.3789 43.0981C34.3789 43.0981 34.2449 44.6191 33.1061 44.8836C31.9673 45.1481 30.0914 43.9578 29.7565 43.6932C29.4885 43.4949 24.7321 40.5191 22.9903 39.0642C22.5213 38.6675 21.9854 37.874 23.0572 36.9481C25.469 34.7658 28.3496 32.0546 30.0914 30.3352C30.8954 29.5416 31.6992 27.69 28.3496 29.9384C23.5932 33.1787 18.9038 36.2207 18.9038 36.2207C18.9038 36.2207 17.8319 36.8819 15.8222 36.2868C13.8123 35.6917 11.4676 34.8981 11.4676 34.8981C11.4676 34.8981 9.8599 33.9062 12.6066 32.8481Z" fill="#00CCFF"/>
</svg>
