<svg width="54" height="55" viewBox="0 0 54 55" fill="none" xmlns="http://www.w3.org/2000/svg">
<rect width="53.6395" height="55" fill="black"/>
<path d="M37.9368 26.8101C37.2069 27.1327 36.4396 27.3574 35.6537 27.4785C36.0211 27.4138 36.5617 26.7346 36.7769 26.4597C37.1038 26.045 37.353 25.5716 37.5117 25.0635C37.5117 25.0258 37.5484 24.9719 37.5117 24.9449C37.4932 24.9345 37.4724 24.9291 37.4513 24.9291C37.4302 24.9291 37.4095 24.9345 37.391 24.9449C36.5377 25.4195 35.6295 25.7818 34.688 26.023C34.6552 26.0333 34.6203 26.0343 34.587 26.0257C34.5537 26.0172 34.5233 25.9995 34.4991 25.9745C34.4258 25.8849 34.3469 25.8003 34.2629 25.7212C33.8789 25.3678 33.4432 25.0786 32.9718 24.8641C32.3354 24.5959 31.6481 24.4798 30.9616 24.5245C30.2956 24.5677 29.6453 24.7512 29.0512 25.0635C28.4662 25.3928 27.9521 25.8402 27.5397 26.3788C27.1059 26.9332 26.7927 27.5765 26.6212 28.2655C26.4798 28.9209 26.4637 29.5983 26.574 30.26C26.574 30.3732 26.574 30.3894 26.4795 30.3732C22.7373 29.8072 19.667 28.4434 17.1583 25.5163C17.048 25.387 16.9903 25.387 16.9011 25.5163C15.8094 27.2197 16.3395 29.915 17.7041 31.2465C17.8878 31.4244 18.0767 31.5969 18.2762 31.7586C17.6505 31.713 17.0401 31.5388 16.4812 31.2465C16.3762 31.1764 16.3185 31.2142 16.3133 31.3435C16.2984 31.5229 16.2984 31.7032 16.3133 31.8826C16.4228 32.7422 16.7526 33.5565 17.269 34.2422C17.7854 34.9279 18.4699 35.4604 19.2524 35.7854C19.4431 35.8693 19.6419 35.9325 19.8455 35.974C19.2663 36.0912 18.6722 36.1094 18.0872 36.0279C17.9613 36.001 17.914 36.0711 17.9613 36.195C18.7328 38.3513 20.407 39.0089 21.6352 39.3755C21.8031 39.4024 21.9711 39.4024 22.16 39.4456C22.16 39.4456 22.16 39.4456 22.1285 39.4779C21.7664 40.1571 20.3021 40.6153 19.6303 40.8525C18.4041 41.3049 17.0967 41.4778 15.7989 41.3592C15.5942 41.3269 15.547 41.3323 15.4945 41.3592C15.442 41.3862 15.4945 41.4455 15.5522 41.4994C15.8147 41.6773 16.0771 41.8336 16.35 41.9845C17.1625 42.4397 18.0214 42.8012 18.9112 43.0626C23.5194 44.3671 28.7048 43.4076 32.1635 39.8768C34.8822 37.1061 35.8374 33.2841 35.8374 29.4568C35.8374 29.3113 36.0106 29.225 36.1104 29.1496C36.7982 28.5991 37.4046 27.9491 37.9106 27.2197C37.9982 27.111 38.0431 26.9726 38.0365 26.8316C38.0365 26.7508 38.0365 26.7669 37.9368 26.8101Z" fill="#00CCFF"/>
</svg>
