<svg width="28" height="25" viewBox="0 0 28 25" fill="none" xmlns="http://www.w3.org/2000/svg">
<path d="M17.5457 13.6678C17.5834 14.0598 17.5949 14.4562 17.5803 14.8573C17.5117 15.2606 17.4157 15.6618 17.2924 16.0606C17.1143 16.4477 16.9095 16.8254 16.678 17.1937C16.395 17.5362 16.088 17.8623 15.7567 18.172C15.3813 18.4427 14.9862 18.6908 14.5714 18.9164C14.1233 19.0915 13.6616 19.2391 13.1866 19.3592C12.6919 19.4203 12.1913 19.4507 11.6847 19.4501C11.1746 19.3858 10.6669 19.2893 10.1617 19.1606C9.67016 18.9675 9.18977 18.743 8.72055 18.487C8.28225 18.1705 7.86354 17.8256 7.46442 17.4522C7.1123 17.0266 6.7873 16.5778 6.48942 16.1057C6.25226 15.5936 6.04829 15.0654 5.87748 14.5209C5.77768 13.9522 5.71514 13.3758 5.68989 12.7917C5.74156 12.2016 5.83226 11.6133 5.962 11.0268C6.16963 10.4538 6.41549 9.89246 6.69955 9.34279C7.05723 8.82615 7.44967 8.33072 7.87686 7.8565C8.36818 7.43358 8.88827 7.04043 9.43713 6.67704C10.0358 6.38061 10.6551 6.12089 11.295 5.89788C11.9664 5.75368 12.6483 5.65099 13.3409 5.58979C14.0438 5.61449 14.7461 5.6829 15.4479 5.79501C16.1371 5.99466 16.8142 6.23738 17.4791 6.52319C18.1084 6.89235 18.7144 7.30106 19.2969 7.74932C19.8222 8.271 20.3139 8.8259 20.772 9.41402C21.1541 10.0603 21.4944 10.7311 21.7927 11.4262C22.0006 12.1598 22.1606 12.907 22.2728 13.6678C22.2857 14.444 22.2477 15.2217 22.159 16.0009C21.9681 16.7705 21.7267 17.5289 21.4348 18.2761C21.0447 18.9883 20.6077 19.6769 20.1239 20.3419C19.5525 20.9479 18.9411 21.5189 18.2897 22.055C17.5674 22.5111 16.8149 22.9228 16.0322 23.2901C15.2007 23.561 14.3511 23.7806 13.4834 23.9489C12.5929 24.0101 11.6981 24.0163 10.7989 23.9675C9.90547 23.8075 9.02215 23.5923 8.14899 23.3217C7.31062 22.9432 6.49674 22.5128 5.70735 22.0304C4.98055 21.4504 4.29145 20.8254 3.64006 20.1554C3.07589 19.4047 2.56061 18.6191 2.09422 17.7986C1.73476 16.9204 1.43256 16.02 1.1876 15.0973C1.06294 14.1443 1.00041 13.1836 1 12.2153C1.12583 11.247 1.31476 10.2865 1.56679 9.33385C1.94294 8.41247 2.37907 7.5144 2.87519 6.63964C3.48514 5.82634 4.14796 5.0508 4.86365 4.31302C5.67515 3.66379 6.52873 3.06474 7.4244 2.51586C8.39109 2.0777 9.38601 1.69923 10.4092 1.38048C11.4732 1.18802 12.5494 1.0612 13.6377 1C14.7332 1.07295 15.8236 1.21337 16.9087 1.42123C17.9658 1.76261 19.0003 2.16895 20.0121 2.64024C20.9615 3.23571 21.8718 3.88936 22.7429 4.60118C23.5204 5.41953 24.2442 6.2853 24.9145 7.1985C25.4651 8.19319 25.9507 9.22118 26.3713 10.2825C26.6534 11.3943 26.8629 12.5227 27 13.6678" stroke="#00CCFF" stroke-width="2"/>
</svg>
